<?xml version="1.0" standalone="no"?>
<!DOCTYPE svg PUBLIC "-//W3C//DTD SVG 20010904//EN"
 "http://www.w3.org/TR/2001/REC-SVG-20010904/DTD/svg10.dtd">
<svg version="1.0" xmlns="http://www.w3.org/2000/svg"
 width="1080.000000pt" height="1080.000000pt" viewBox="0 0 1080.000000 1080.000000"
 preserveAspectRatio="xMidYMid meet">
<metadata>
Created by potrace 1.11, written by Peter Selinger 2001-2013
</metadata>
<g transform="translate(0.000000,1080.000000) scale(0.100000,-0.100000)"
fill="#000000" stroke="none">
<path d="M10 5400 l0 -5400 5395 0 5395 0 0 5400 0 5400 -5395 0 -5395 0 0
-5400z m7663 3591 c586 -118 963 -483 1074 -1038 25 -125 25 -417 0 -531 -65
-295 -191 -517 -431 -758 -194 -194 -377 -327 -639 -464 -296 -155 -696 -294
-890 -307 l-77 -6 245 398 c135 220 245 401 245 404 0 4 -35 7 -77 9 -285 10
-628 120 -857 275 -77 52 -195 165 -252 241 -60 79 -128 222 -154 321 -72 282
-46 553 75 800 178 364 549 596 1071 670 155 22 528 14 667 -14z m-2815 -588
l-3 -308 -305 -5 c-291 -5 -307 -6 -346 -27 -59 -32 -87 -81 -87 -152 1 -66
25 -128 91 -241 25 -41 420 -718 878 -1504 l834 -1429 0 -1081 c0 -713 4
-1094 10 -1118 15 -51 56 -97 110 -122 42 -20 65 -21 378 -24 l332 -3 0 -305
0 -304 -1500 0 -1500 0 0 304 0 305 338 3 c305 3 341 5 374 22 56 27 94 76
107 136 8 35 11 353 11 1019 l0 968 -961 1639 c-528 901 -978 1667 -1000 1701
-53 81 -126 148 -197 181 -52 24 -71 27 -217 32 l-160 5 -3 308 -2 307 1410 0
1410 0 -2 -307z"/>
</g>
</svg>
