<?xml version="1.0" encoding="utf-8"?>
<!-- Generator: Adobe Illustrator 19.2.0, SVG Export Plug-In . SVG Version: 6.00 Build 0)  -->
<!DOCTYPE svg PUBLIC "-//W3C//DTD SVG 1.1//EN" "http://www.w3.org/Graphics/SVG/1.1/DTD/svg11.dtd">
<svg version="1.1" id="Layer_1" xmlns="http://www.w3.org/2000/svg" xmlns:xlink="http://www.w3.org/1999/xlink" x="0px" y="0px"
	 viewBox="0 0 1920 288" style="enable-background:new 0 0 1920 288;" xml:space="preserve">
<style type="text/css">
	.st0{fill:none;stroke:#7CDFA8;stroke-miterlimit:10;}
</style>
<g>
	<path class="st0" d="M468.2,798c-42.1-27.8-34.8-39-77-66.8c-42.1-27.8-49.5-16.6-91.7-44.5c-42.1-27.8-34.8-39-77-66.8
		c-42.1-27.8-49.5-16.6-91.7-44.5c-42.1-27.8-34.8-39-77-66.8C11.6,480.8,4.2,492-38,464.2c-42.1-27.8-34.8-39-77-66.8
		c-42.1-27.8-49.5-16.6-91.7-44.5c-42.1-27.8-34.8-39-77-66.8"/>
	<path class="st0" d="M473.3,790.3c-42.1-27.8-34.8-39-77-66.8c-42.1-27.9-49.5-16.6-91.7-44.4c-42.1-27.8-34.8-39-77-66.8
		c-42.1-27.8-49.5-16.6-91.7-44.5c-42.1-27.8-34.8-39-77-66.8c-42.1-27.8-49.5-16.6-91.7-44.5c-42.1-27.8-34.8-39-77-66.8
		c-42-27.8-49.5-16.6-91.6-44.4c-42.2-27.8-34.8-39.1-76.9-66.9"/>
	<path class="st0" d="M478.5,782.5c-42.1-27.8-34.8-39-77-66.8c-42.1-27.8-49.5-16.6-91.7-44.5c-42.1-27.8-34.8-39-77-66.8
		c-42.1-27.8-49.5-16.6-91.7-44.5c-42.1-27.8-34.8-39-77-66.8c-42.1-27.8-49.5-16.6-91.7-44.5c-42.1-27.8-34.8-39-77-66.8
		c-42.1-27.8-49.5-16.6-91.7-44.5c-42.1-27.8-34.8-39-77-66.8"/>
	<path class="st0" d="M483.6,774.7c-42.1-27.8-34.8-39-77-66.8c-42.1-27.8-49.5-16.6-91.7-44.5c-42.1-27.8-34.8-39-77-66.8
		c-42.1-27.8-49.5-16.6-91.7-44.5c-42.1-27.8-34.8-39-77-66.8c-42.1-27.8-49.5-16.6-91.7-44.5c-42.1-27.8-34.8-39-77-66.8
		c-42.1-27.8-49.5-16.6-91.7-44.5c-42.1-27.8-34.8-39-77-66.8"/>
	<path class="st0" d="M488.7,766.9c-42.1-27.8-34.8-39-77-66.8c-42.1-27.8-49.5-16.6-91.7-44.5c-42.1-27.8-34.8-39-77-66.8
		c-42.1-27.8-49.5-16.6-91.7-44.5c-42.1-27.8-34.8-39-77-66.8c-42.1-27.8-49.5-16.6-91.7-44.5c-42.1-27.8-34.8-39-77-66.8
		c-42.1-27.8-49.5-16.6-91.7-44.5c-42.1-27.8-34.8-39-77-66.8"/>
	<path class="st0" d="M493.9,759.1c-42.1-27.8-34.8-39-77-66.8c-42.1-27.8-49.5-16.6-91.7-44.5c-42.1-27.8-34.8-39-77-66.8
		c-42.1-27.8-49.5-16.6-91.7-44.5c-42.1-27.8-34.8-39-77-66.8c-42.1-27.8-49.5-16.6-91.7-44.5c-42.1-27.8-34.8-39-77-66.8
		c-42.1-27.8-49.5-16.6-91.7-44.5c-42.1-27.8-34.8-39-77-66.8"/>
	<path class="st0" d="M499,751.4c-42.1-27.8-34.8-39-77-66.8c-42.1-27.8-49.5-16.6-91.7-44.5c-42.1-27.8-34.8-39-77-66.8
		c-42.1-27.8-49.5-16.6-91.7-44.5c-42.1-27.8-34.8-39-77-66.8C42.4,434.2,35,445.4-7.2,417.6c-42.1-27.8-34.8-39-77-66.8
		c-42.1-27.8-49.5-16.6-91.7-44.5c-42.1-27.8-34.8-39-77-66.8"/>
	<path class="st0" d="M504.1,743.6c-42.1-27.8-34.8-39-77-66.8c-42.1-27.8-49.5-16.6-91.7-44.5c-42.1-27.8-34.8-39-77-66.8
		c-42.1-27.8-49.5-16.6-91.7-44.5c-42.1-27.8-34.8-39-77-66.8c-42.1-27.8-49.5-16.6-91.7-44.5c-42.1-27.8-34.8-39-77-66.8
		c-42.1-27.8-49.5-16.6-91.7-44.5c-42.1-27.8-34.8-39-77-66.8"/>
	<path class="st0" d="M509.2,735.8c-42.1-27.8-34.8-39-77-66.8c-42.1-27.8-49.5-16.6-91.7-44.5c-42.1-27.8-34.8-39-77-66.8
		c-42.1-27.8-49.5-16.6-91.7-44.5c-42.1-27.8-34.8-39-77-66.8C52.6,418.6,45.3,429.8,3,402c-42.1-27.8-34.8-39-77-66.8
		c-42.1-27.8-49.5-16.6-91.7-44.5c-42.1-27.8-34.8-39-77-66.8"/>
	<path class="st0" d="M514.4,728c-42.1-27.8-34.8-39-77-66.8c-42.1-27.8-49.5-16.6-91.7-44.5c-42.1-27.8-34.8-39-77-66.8
		c-42.1-27.8-49.5-16.6-91.7-44.5c-42.1-27.8-34.8-39-77-66.8C57.8,410.8,50.4,422,8.2,394.2c-42.1-27.8-34.8-39-77-66.8
		c-42.1-27.8-49.5-16.6-91.7-44.5c-42.1-27.8-34.8-39-77-66.8"/>
	<path class="st0" d="M519.5,720.3c-42.1-27.8-34.8-39-77-66.8c-42.1-27.8-49.5-16.6-91.7-44.5c-42.1-27.8-34.8-39-77-66.8
		c-42.1-27.8-49.5-16.6-91.7-44.5c-42.1-27.8-34.7-39-76.8-66.8c-42.1-27.8-49.5-16.6-91.7-44.5c-42.1-27.8-34.8-39-77-66.8
		c-42.1-27.8-49.5-16.6-91.7-44.5c-42.2-27.7-34.8-39-76.9-66.8"/>
	<path class="st0" d="M524.6,712.5c-42.1-27.8-34.8-39-77-66.8c-42.1-27.8-49.5-16.6-91.7-44.5c-42.1-27.8-34.8-39-77-66.8
		c-42.1-27.8-49.5-16.6-91.7-44.5c-42.1-27.8-34.8-39-77-66.8c-42.1-27.8-49.5-16.6-91.7-44.5c-42.1-27.8-34.8-39-77-66.8
		c-42.1-27.8-49.5-16.6-91.7-44.5c-42.1-27.8-34.8-39-77-66.8"/>
	<path class="st0" d="M529.7,704.7c-42.1-27.8-34.8-39-77-66.8c-42.1-27.8-49.5-16.6-91.7-44.5c-42.1-27.8-34.8-39-77-66.8
		c-42.1-27.8-49.5-16.6-91.7-44.5c-42.1-27.8-34.8-39-77-66.8c-42.1-27.8-49.5-16.6-91.7-44.5c-42.1-27.8-34.8-39-77-66.8
		c-42.1-27.8-49.5-16.6-91.7-44.5c-42.1-27.8-34.8-39-77-66.8"/>
	<path class="st0" d="M534.9,696.9c-42.1-27.8-34.8-39-77-66.8c-42.1-27.8-49.5-16.6-91.7-44.5c-42.1-27.8-34.8-39-77-66.8
		c-42.1-27.8-49.5-16.6-91.7-44.5c-42.1-27.8-34.7-38.9-76.9-66.7C78.4,379.8,71,391,28.8,363.2c-42.1-27.8-34.8-39-77-66.8
		c-42.1-27.8-49.5-16.6-91.7-44.5c-42.1-27.8-34.8-39-76.9-66.8"/>
	<path class="st0" d="M540,689.2c-42.1-27.8-34.8-39-77-66.8c-42.1-27.8-49.5-16.6-91.7-44.5c-42.1-27.8-34.8-39-77-66.8
		c-42.1-27.8-49.5-16.6-91.7-44.5c-42.1-27.8-34.8-39-77-66.8C83.4,372,76,383.2,33.8,355.4c-42.1-27.8-34.8-39-77-66.8
		c-42.1-27.8-49.5-16.6-91.7-44.5c-42.1-27.8-34.8-39-77-66.8"/>
	<path class="st0" d="M545.1,681.4c-42.1-27.8-34.8-39-77-66.8c-42.1-27.8-49.5-16.6-91.7-44.5c-42.1-27.8-34.8-39-77-66.8
		c-42.1-27.8-49.5-16.6-91.7-44.5c-42.1-27.8-34.8-39-77-66.8c-42.1-27.8-49.5-16.6-91.7-44.5c-42.1-27.8-34.8-39-77-66.8
		c-42.1-27.8-49.5-16.6-91.7-44.5c-42.1-27.8-34.8-39-77-66.8"/>
	<path class="st0" d="M550.2,673.6c-42.1-27.8-34.8-39-77-66.8c-42.1-27.8-49.5-16.6-91.7-44.5c-42.1-27.8-34.8-39-77-66.8
		c-42.1-27.8-49.5-16.6-91.7-44.5c-42.1-27.8-34.7-38.9-76.9-66.7c-42.1-27.8-49.5-16.6-91.7-44.5c-42.1-27.8-34.8-39-77-66.8
		c-42.1-27.8-49.5-16.6-91.7-44.5c-42.1-27.8-34.8-39-76.9-66.8"/>
	<path class="st0" d="M555.4,665.8c-42.1-27.8-34.8-39-77-66.8c-42.1-27.8-49.5-16.6-91.7-44.5c-42.1-27.8-34.8-39-77-66.8
		c-42.1-27.8-49.5-16.6-91.7-44.5c-42.1-27.8-34.8-39-77-66.8c-42.1-27.8-49.5-16.6-91.7-44.5c-42.1-27.8-34.8-39-77-66.8
		c-42.1-27.8-49.5-16.6-91.7-44.5c-42.1-27.8-34.8-39-77-66.8"/>
	<path class="st0" d="M560.5,658c-42.1-27.8-34.8-39-77-66.8c-42.1-27.8-49.5-16.6-91.7-44.5c-42.1-27.8-34.8-39-77-66.8
		c-42.1-27.8-49.5-16.6-91.7-44.5c-42.1-27.8-34.8-39-77-66.8c-42.1-27.8-49.5-16.6-91.7-44.5c-42.1-27.8-34.8-39-77-66.8
		c-42.1-27.8-49.5-16.6-91.7-44.5c-42.1-27.8-34.8-39-77-66.8"/>
	<path class="st0" d="M565.6,650.3c-42.1-27.8-34.8-39-77-66.8c-42.1-27.8-49.5-16.6-91.7-44.5c-42.1-27.8-34.8-39-77-66.8
		c-42.1-27.8-49.5-16.6-91.7-44.5c-42.1-27.8-34.7-38.9-76.9-66.7c-42.1-27.8-49.5-16.6-91.7-44.5c-42.1-27.8-34.8-39-77-66.8
		c-42.1-27.8-49.5-16.6-91.7-44.5c-42.1-27.8-34.8-39-76.9-66.8"/>
	<path class="st0" d="M570.8,642.5c-42.1-27.8-34.8-39-77-66.8c-42.1-27.8-49.5-16.6-91.7-44.5c-42.1-27.8-34.8-39-77-66.8
		c-42.1-27.8-49.5-16.6-91.7-44.5c-42.1-27.8-34.8-39-77-66.8c-42.1-27.8-49.5-16.6-91.7-44.5c-42.1-27.8-34.8-39-77-66.8
		c-42.1-27.8-49.5-16.6-91.7-44.5c-42.1-27.8-34.8-39-77-66.8"/>
	<path class="st0" d="M575.9,634.7c-42.1-27.8-34.8-39-77-66.8c-42.1-27.8-49.5-16.6-91.7-44.5c-42.1-27.8-34.8-39-77-66.8
		c-42.1-27.8-49.5-16.6-91.7-44.5c-42.1-27.8-34.8-39-77-66.8c-42.1-27.8-49.5-16.6-91.7-44.5c-42.1-27.8-34.8-39-77-66.8
		c-42.1-27.8-49.5-16.6-91.7-44.5c-42.1-27.8-34.8-39-77-66.8"/>
	<path class="st0" d="M581,626.9c-42.1-27.8-34.8-39-77-66.8c-42.1-27.8-49.5-16.6-91.7-44.5c-42.1-27.8-34.8-39-77-66.8
		c-42.1-27.8-49.5-16.6-91.7-44.5c-42.2-27.8-34.7-38.9-76.9-66.7c-42.1-27.8-49.5-16.6-91.7-44.5c-42.1-27.8-34.8-39-77-66.8
		c-42.1-27.8-49.5-16.6-91.7-44.5c-42.1-27.8-34.8-39-76.9-66.8"/>
	<path class="st0" d="M586.1,619.2c-42.1-27.8-34.8-39-77-66.8c-42.1-27.8-49.5-16.6-91.7-44.5c-42.1-27.8-34.8-39-77-66.8
		c-42.1-27.8-49.5-16.6-91.7-44.5c-42.1-27.8-34.8-39-77-66.8c-42.1-27.8-49.5-16.6-91.7-44.5c-42.1-27.8-34.8-39-77-66.8
		c-42.1-27.8-49.5-16.6-91.7-44.5c-42-27.7-34.6-39-76.7-66.8"/>
	<path class="st0" d="M591.3,611.4c-42.1-27.8-34.8-39-77-66.8c-42.1-27.8-49.5-16.6-91.7-44.5c-42.1-27.8-34.8-39-77-66.8
		c-42.1-27.8-49.5-16.6-91.7-44.5s-34.7-38.9-76.9-66.7c-42.1-27.8-49.5-16.6-91.7-44.5c-42.1-27.8-34.8-39-77-66.8
		c-42.1-27.8-49.5-16.6-91.7-44.5c-42.1-27.8-34.8-39-76.9-66.8"/>
	<path class="st0" d="M596.4,603.6c-42.1-27.8-34.8-39-77-66.8c-42.1-27.8-49.5-16.6-91.7-44.5c-42.1-27.8-34.8-39-77-66.8
		c-42.1-27.8-49.5-16.6-91.7-44.5c-42.1-27.8-34.8-39-77-66.8c-42.1-27.8-49.5-16.6-91.7-44.5c-42.1-27.8-34.8-39-77-66.8
		c-42.1-27.8-49.5-16.6-91.7-44.5c-42-27.7-34.6-38.9-76.8-66.7"/>
	<path class="st0" d="M601.5,595.8c-42.1-27.8-34.8-39-77-66.8c-42.1-27.8-49.5-16.6-91.7-44.4s-34.8-39-77-66.8
		c-42.1-27.8-49.5-16.6-91.7-44.5c-42.1-27.8-34.8-39-76.9-66.8c-42.2-27.8-49.6-16.7-91.7-44.5c-42.1-27.8-34.8-39-77-66.8
		c-42.1-27.8-49.5-16.6-91.7-44.4c-42.2-27.8-34.8-39-77-66.8"/>
	<path class="st0" d="M606.7,588c-42.1-27.8-34.8-39-77-66.8c-42.1-27.8-49.5-16.6-91.7-44.5c-42.1-27.8-34.8-39-77-66.8
		c-42.1-27.8-49.5-16.6-91.7-44.5c-42.1-27.8-34.8-39-77-66.8c-42.1-27.8-49.5-16.6-91.7-44.5c-42.1-27.8-34.8-39-77-66.8
		c-42.1-27.8-49.5-16.6-91.7-44.5c-42-27.7-34.6-38.9-76.8-66.7"/>
	<path class="st0" d="M611.8,580.3c-42.1-27.8-34.8-39-77-66.8c-42.1-27.8-49.5-16.6-91.7-44.5c-42.1-27.8-34.8-39-77-66.8
		c-42.1-27.8-49.5-16.6-91.7-44.5c-42.1-27.8-34.8-39-77-66.8c-42.1-27.8-49.5-16.6-91.7-44.5c-42.1-27.8-34.8-39-77-66.8
		c-42.1-27.8-49.5-16.6-91.7-44.5c-42-27.7-34.6-38.9-76.8-66.7"/>
	<path class="st0" d="M616.9,572.5c-42.1-27.8-34.8-39-77-66.8c-42.1-27.8-49.5-16.6-91.7-44.4s-34.8-39-77-66.8
		c-42.1-27.8-49.5-16.6-91.7-44.5c-42.1-27.8-34.8-39-76.9-66.8c-42.2-27.8-49.6-16.7-91.7-44.5s-34.8-39-77-66.8
		c-42.1-27.8-49.5-16.6-91.7-44.4c-42.2-27.8-34.8-39-77-66.8"/>
	<path class="st0" d="M622,564.7c-42.1-27.8-34.8-39-77-66.8c-42.1-27.8-49.5-16.6-91.7-44.4c-42.1-27.8-34.8-39-77-66.8
		c-42.1-27.8-49.5-16.6-91.7-44.5c-42.1-27.8-34.8-39-76.9-66.8S158.2,258.8,116,231c-42.1-27.8-34.8-39-77-66.8
		c-42.1-27.8-49.5-16.6-91.7-44.4c-42.2-27.8-34.8-39-77-66.8"/>
</g>
</svg>
