<?xml version="1.0" encoding="utf-8"?>
<!-- Generator: Adobe Illustrator 19.2.0, SVG Export Plug-In . SVG Version: 6.00 Build 0)  -->
<!DOCTYPE svg PUBLIC "-//W3C//DTD SVG 1.1//EN" "http://www.w3.org/Graphics/SVG/1.1/DTD/svg11.dtd">
<svg version="1.1" id="Layer_1" xmlns="http://www.w3.org/2000/svg" xmlns:xlink="http://www.w3.org/1999/xlink" x="0px" y="0px"
	 viewBox="0 0 1920 576" style="enable-background:new 0 0 1920 576;" xml:space="preserve">
<style type="text/css">
	.st0{fill:none;stroke:#7CDFA8;stroke-miterlimit:10;}
</style>
<path class="st0" d="M-18.7,146.3c53.3,34.4,62.3,20.3,115.5,54.7s44,48.5,97.2,82.9s62.3,20.3,115.5,54.7s44,48.5,97.2,82.9
	S469,442,522.2,476.4s44,48.5,97.2,82.9c53.3,34.4,62.3,20.3,115.5,54.7c53.2,34.4,44,48.5,97.2,82.9
	c53.3,34.4,62.3,20.3,115.5,54.7"/>
<path class="st0" d="M-25.1,156.2c53.3,34.4,62.3,20.3,115.5,54.7s44,48.5,97.2,82.9s62.3,20.3,115.5,54.7s44,48.5,97.2,82.9
	s62.3,20.3,115.5,54.7s44,48.5,97.2,82.9c53.3,34.4,62.3,20.3,115.5,54.7c53.2,34.4,44,48.5,97.2,82.9
	c53.3,34.4,62.3,20.3,115.5,54.7"/>
<path class="st0" d="M-31.4,166c53.3,34.4,62.3,20.3,115.5,54.7s44,48.5,97.2,82.9s62.3,20.3,115.5,54.7s44,48.5,97.2,82.9
	s62.3,20.3,115.5,54.7c53.2,34.4,44,48.5,97.2,82.9c53.3,34.4,62.3,20.3,115.5,54.7c53.2,34.4,44,48.5,97.2,82.9
	c53.3,34.4,62.3,20.3,115.5,54.7"/>
<path class="st0" d="M-37.5,175.9c53.1,34.4,62.3,20.3,115.5,54.7c53.1,34.4,43.8,48.4,97.1,82.8s62.3,20.3,115.5,54.7
	s44,48.5,97.2,82.9s62.3,20.3,115.5,54.7s44,48.5,97.2,82.9c53.3,34.4,62.3,20.3,115.5,54.7c53.1,34.4,43.9,48.5,97.2,82.9
	c53.3,34.4,62.3,20.3,115.5,54.7"/>
<path class="st0" d="M-44.1,185.6c53.3,34.4,62.3,20.3,115.5,54.7c53.2,34.4,44,48.5,97.2,82.9s62.3,20.3,115.5,54.7
	s44,48.5,97.2,82.9s62.3,20.3,115.5,54.7c53.2,34.4,44,48.5,97.2,82.9c53.3,34.4,62.3,20.3,115.5,54.7s44,48.5,97.2,82.9
	c53.3,34.4,62.3,20.3,115.5,54.7"/>
<path class="st0" d="M-50.4,195.4C2.8,229.8,11.8,215.7,65,250.1c53.2,34.4,44,48.5,97.2,82.9s62.3,20.3,115.5,54.7
	s44,48.5,97.2,82.9s62.3,20.3,115.5,54.7c53.2,34.4,44,48.5,97.2,82.9c53.3,34.4,62.3,20.3,115.5,54.7c53.2,34.4,44,48.5,97.2,82.9
	c53.3,34.4,62.3,20.3,115.5,54.7"/>
<path class="st0" d="M-56.5,205.3c53.1,34.4,62.3,20.3,115.5,54.7s43.8,48.4,97.1,82.8s62.3,20.3,115.5,54.7s44,48.5,97.2,82.9
	s62.3,20.3,115.5,54.7c53.2,34.4,44,48.5,97.2,82.9c53.3,34.4,62.3,20.3,115.5,54.7c53.1,34.4,43.9,48.5,97.2,82.9
	c53.3,34.4,62.3,20.3,115.5,54.7"/>
<path class="st0" d="M-63.2,215c53.3,34.4,62.3,20.3,115.5,54.7s44,48.5,97.2,82.9S211.8,373,265,407.4s44,48.5,97.2,82.9
	s62.3,20.3,115.5,54.7c53.2,34.4,44,48.5,97.2,82.9s62.3,20.3,115.5,54.7c53.2,34.4,44,48.5,97.2,82.9
	c53.3,34.4,62.3,20.3,115.5,54.7"/>
<path class="st0" d="M-69.5,224.8c53.3,34.4,62.3,20.3,115.5,54.7c53.2,34.4,44,48.5,97.2,82.9s62.3,20.3,115.5,54.7
	s44,48.5,97.2,82.9s62.3,20.3,115.5,54.7s44,48.5,97.2,82.9c53.3,34.4,62.3,20.3,115.5,54.7c53.2,34.4,44,48.5,97.2,82.9
	c53.3,34.4,62.3,20.3,115.5,54.7"/>
<path class="st0" d="M-75.6,234.8c53.1,34.4,62.4,20.2,115.6,54.7c53.1,34.4,44,48.6,97.1,82.8c53.3,34.4,62.3,20.3,115.5,54.7
	s44,48.5,97.2,82.9s62.3,20.3,115.5,54.7c53.2,34.4,44,48.5,97.2,82.9c53.3,34.4,62.3,20.3,115.5,54.7
	c53.1,34.4,43.9,48.5,97.2,82.9c53.3,34.4,62.3,20.3,115.5,54.7"/>
<path class="st0" d="M-82.2,244.4c53.3,34.4,62.3,20.3,115.5,54.7c53.2,34.4,44,48.5,97.2,82.9s62.3,20.3,115.5,54.7
	s44,48.5,97.2,82.9s62.3,20.3,115.5,54.7c53.2,34.4,44,48.5,97.2,82.9c53.3,34.4,62.3,20.3,115.5,54.7c53.2,34.4,44,48.5,97.2,82.9
	c53.3,34.4,62.3,20.3,115.5,54.7"/>
<path class="st0" d="M-88.5,254.2C-35.3,288.7-26.3,274.5,27,309s44,48.5,97.2,82.9s62.3,20.3,115.5,54.7s44,48.5,97.2,82.9
	s62.3,20.3,115.5,54.7c53.2,34.4,44,48.5,97.2,82.9c53.3,34.4,62.3,20.3,115.5,54.7c53.2,34.4,44,48.5,97.2,82.9
	c53.3,34.4,62.3,20.3,115.5,54.7"/>
<path class="st0" d="M-94.9,264c53.3,34.4,62.3,20.3,115.5,54.7s44,48.5,97.2,82.9c53.3,34.4,62.3,20.3,115.5,54.7
	s44,48.5,97.2,82.9c53.3,34.4,62.3,20.3,115.5,54.7c53.2,34.4,44,48.5,97.2,82.9c53.3,34.4,62.3,20.3,115.5,54.7s44,48.5,97.2,82.9
	c53.3,34.4,62.3,20.3,115.5,54.7"/>
<path class="st0" d="M-101.2,273.9C-48,308.3-39,294.1,14.2,328.6s44,48.5,97.2,82.9s62.3,20.3,115.5,54.7s44,48.5,97.2,82.9
	c53.3,34.4,62.3,20.3,115.5,54.7c53.2,34.4,44,48.5,97.2,82.9c53.3,34.4,62.3,20.3,115.5,54.7c53.2,34.4,44,48.5,97.2,82.9
	s62.3,20.3,115.5,54.7"/>
<path class="st0" d="M-107.6,283.6c53.3,34.4,62.3,20.3,115.5,54.7s44,48.5,97.2,82.9c53.3,34.4,62.3,20.3,115.5,54.7
	s44,48.5,97.2,82.9c53.3,34.4,62.3,20.3,115.5,54.7c53.2,34.4,44,48.5,97.2,82.9s62.3,20.3,115.5,54.7s44,48.5,97.2,82.9
	c53.3,34.4,62.3,20.3,115.5,54.7"/>
<path class="st0" d="M-113.9,293.4c53.3,34.4,62.3,20.3,115.5,54.7s44,48.5,97.2,82.9s62.3,20.3,115.5,54.7s44,48.5,97.2,82.9
	c53.3,34.4,62.3,20.3,115.5,54.7c53.2,34.4,44,48.5,97.2,82.9c53.3,34.4,62.3,20.3,115.5,54.7c53.2,34.4,44,48.5,97.2,82.9
	s62.3,20.3,115.5,54.7"/>
<path class="st0" d="M-120.3,303.2C-67,337.7-58,323.5-4.8,358s44,48.5,97.2,82.9c53.3,34.4,62.3,20.3,115.5,54.7s44,48.5,97.2,82.9
	s62.3,20.3,115.5,54.7s44,48.5,97.2,82.9c53.3,34.4,62.3,20.3,115.5,54.7c53.2,34.4,44,48.5,97.2,82.9
	c53.3,34.4,62.3,20.3,115.5,54.7"/>
<path class="st0" d="M-126.6,313.1c53.3,34.4,62.3,20.3,115.5,54.7s44,48.5,97.2,82.9c53.3,34.4,62.3,20.3,115.5,54.7
	s44,48.5,97.2,82.9s62.3,20.3,115.5,54.7s44,48.5,97.2,82.9c53.3,34.4,62.3,20.3,115.5,54.7c53.2,34.4,44,48.5,97.2,82.9
	c53.3,34.4,62.3,20.3,115.5,54.7"/>
<path class="st0" d="M-132.7,323c53.2,34.4,62.2,20.2,115.4,54.7s44,48.5,97.2,82.9s62.3,20.3,115.5,54.7
	c53.2,34.4,44.1,48.6,97.2,82.9s62.2,20.1,115.4,54.6s44,48.5,97.2,82.9c53.3,34.4,62.3,20.3,115.5,54.7
	c53.2,34.4,44,48.5,97.2,82.9c53.3,34.4,62.3,20.3,115.5,54.7"/>
<path class="st0" d="M-139.3,332.6C-86,367.1-77,352.9-23.8,387.4s44,48.5,97.2,82.9s62.3,20.3,115.5,54.7
	c53.2,34.4,44,48.5,97.2,82.9s62.3,20.3,115.5,54.7c53.2,34.4,44,48.5,97.2,82.9c53.3,34.4,62.3,20.3,115.5,54.7
	c53.2,34.4,44,48.5,97.2,82.9c53.3,34.4,62.3,20.3,115.5,54.7"/>
<path class="st0" d="M-145.6,342.4c53.3,34.4,62.3,20.3,115.5,54.7s44,48.5,97.2,82.9s62.3,20.3,115.5,54.7
	c53.2,34.4,44,48.5,97.2,82.9s62.3,20.3,115.5,54.7c53.2,34.4,44,48.5,97.2,82.9c53.3,34.4,62.3,20.3,115.5,54.7
	c53.2,34.4,44,48.5,97.2,82.9c53.3,34.4,62.3,20.3,115.5,54.7"/>
<path class="st0" d="M-151.8,352.4c53.2,34.4,62.2,20.2,115.4,54.7s44,48.5,97.2,82.9s62.3,20.3,115.5,54.7s44.1,48.5,97.2,82.9
	s62.1,20.2,115.3,54.6c53.2,34.4,44,48.5,97.2,82.9c53.3,34.4,62.3,20.3,115.5,54.7s44,48.5,97.2,82.9
	c53.3,34.4,62.3,20.3,115.5,54.7"/>
<path class="st0" d="M-158.3,362c53.3,34.4,62.3,20.3,115.5,54.7s44,48.5,97.2,82.9s62.3,20.3,115.5,54.7
	c53.2,34.4,44,48.5,97.2,82.9s62.3,20.3,115.5,54.7c53.2,34.4,44,48.5,97.2,82.9c53.3,34.4,62.3,20.3,115.5,54.7
	c53.2,34.4,44,48.5,97.2,82.9c53.3,34.4,62.3,20.3,115.5,54.7"/>
<path class="st0" d="M-164.7,371.8c53.3,34.4,62.3,20.3,115.5,54.7s44,48.5,97.2,82.9s62.3,20.3,115.5,54.7
	c53.2,34.4,44,48.5,97.2,82.9s62.3,20.3,115.5,54.7c53.2,34.4,44,48.5,97.2,82.9c53.3,34.4,62.3,20.3,115.5,54.7
	c53.2,34.4,44,48.5,97.2,82.9c53.3,34.4,62.3,20.3,115.5,54.7"/>
<path class="st0" d="M-170.8,381.8c53.2,34.4,62.2,20.2,115.4,54.7s44,48.5,97.2,82.9c53.3,34.4,62.3,20.3,115.5,54.7
	c53.2,34.4,44.1,48.5,97.2,82.9c53.1,34.4,62.1,20.2,115.3,54.6c53.2,34.4,44,48.5,97.2,82.9c53.3,34.4,62.3,20.3,115.5,54.7
	c53.2,34.4,44,48.5,97.2,82.9s62.3,20.3,115.5,54.7"/>
<path class="st0" d="M-177.3,391.5c53.3,34.4,62.3,20.3,115.5,54.7s44,48.5,97.2,82.9c53.3,34.4,62.3,20.3,115.5,54.7
	c53.2,34.4,44,48.5,97.2,82.9c53.3,34.4,62.3,20.3,115.5,54.7c53.2,34.4,44,48.5,97.2,82.9c53.3,34.4,62.3,20.3,115.5,54.7
	c53.2,34.4,44,48.5,97.2,82.9S735.9,962.6,789,997"/>
<path class="st0" d="M-183.7,401.3c53.3,34.4,62.3,20.3,115.5,54.7s44,48.5,97.2,82.9s62.3,20.3,115.5,54.7
	c53.2,34.4,44,48.5,97.2,82.9C295,711.1,304,697,357.2,731.4c53.2,34.4,44,48.5,97.2,82.9s62.3,20.3,115.5,54.7
	c53.2,34.4,44,48.5,97.2,82.9c53.3,34.4,62.3,20.3,115.5,54.7"/>
<path class="st0" d="M-189.8,411.2c53.2,34.4,62.2,20.2,115.4,54.7s44,48.5,97.2,82.9c53.3,34.4,62.3,20.3,115.5,54.7
	c53.2,34.4,44.1,48.5,97.2,82.9s62.1,20.2,115.3,54.6s44,48.5,97.2,82.9c53.3,34.4,62.3,20.3,115.5,54.7
	c53.2,34.4,44,48.5,97.2,82.9c53.3,34.4,62.3,20.3,115.5,54.7"/>
<path class="st0" d="M-196.4,420.9c53.3,34.4,62.3,20.3,115.5,54.7s44,48.5,97.2,82.9c53.3,34.4,62.3,20.3,115.5,54.7
	c53.2,34.4,44,48.5,97.2,82.9s62.3,20.3,115.5,54.7c53.2,34.4,44,48.5,97.2,82.9c53.3,34.4,62.3,20.3,115.5,54.7
	c53.2,34.4,44,48.5,97.2,82.9c53.3,34.4,62.3,20.3,115.5,54.7"/>
<path class="st0" d="M-202.7,430.7c53.3,34.4,62.3,20.3,115.5,54.7s44,48.5,97.2,82.9c53.3,34.4,62.3,20.3,115.5,54.7
	c53.2,34.4,44,48.5,97.2,82.9c53.3,34.4,62.3,20.3,115.5,54.7c53.2,34.4,44,48.5,97.2,82.9c53.3,34.4,62.3,20.3,115.5,54.7
	c53.2,34.4,44,48.5,97.2,82.9s62.3,20.3,115.5,54.7"/>
<path class="st0" d="M-208.9,440.7c53.2,34.4,62.2,20.2,115.4,54.7s44,48.5,97.2,82.9S66,598.6,119.3,633
	c53.2,34.4,44.1,48.5,97.2,82.9c53.1,34.4,62.1,20.2,115.3,54.6c53.2,34.4,44,48.5,97.2,82.9c53.3,34.4,62.3,20.3,115.5,54.7
	c53.2,34.4,44,48.5,97.2,82.9c53.3,34.4,62.3,20.3,115.5,54.7"/>
<path class="st0" d="M-215.2,450.5c53.1,34.4,62.3,20.2,115.3,54.5c53.2,34.4,44,48.5,97.2,82.9s62.3,20.3,115.5,54.7
	s44,48.5,97.2,82.9s62.3,20.3,115.5,54.7c53.2,34.4,44,48.5,97.2,82.9C476,897.7,485,883.6,538.3,918c53.2,34.4,44,48.5,97.2,82.9
	s62.3,20.3,115.5,54.7"/>
<path class="st0" d="M-221.5,460.3c53.2,34.4,62.2,20.2,115.4,54.7c53.2,34.4,44,48.5,97.2,82.9c53.3,34.4,62.3,20.3,115.5,54.7
	s44.1,48.5,97.2,82.9C257,770,266,755.8,319.2,790.2c53.2,34.4,44,48.5,97.2,82.9c53.3,34.4,62.3,20.3,115.5,54.7
	c53.2,34.4,44,48.5,97.2,82.9s62.3,20.3,115.5,54.7"/>
<path class="st0" d="M-227.9,470c53.1,34.4,62.3,20.3,115.2,54.6c53.2,34.4,44,48.5,97.2,82.9s62.3,20.3,115.5,54.7
	s44,48.5,97.2,82.9c53.3,34.4,62.3,20.3,115.5,54.7c53.2,34.4,44,48.5,97.2,82.9c53.3,34.4,62.3,20.3,115.5,54.7
	c53.2,34.4,44,48.5,97.2,82.9s62.3,20.3,115.5,54.7"/>
<path class="st0" d="M-234.2,479.9c53.1,34.4,62.3,20.3,115.5,54.7s43.9,48.5,97.2,82.9c53.3,34.4,62.3,20.3,115.5,54.7
	c53.1,34.4,44.1,48.6,97.2,82.9c53.2,34.4,62.2,20.2,115.4,54.7c53.2,34.4,44,48.5,97.2,82.9c53.3,34.4,62.3,20.3,115.5,54.7
	c53.1,34.4,43.9,48.5,97.2,82.9c53.3,34.4,62.3,20.3,115.5,54.7"/>
<path class="st0" d="M-240.6,489.7c53.1,34.4,62.3,20.3,115.2,54.6c53.2,34.4,44,48.5,97.2,82.9c53.3,34.4,62.3,20.3,115.5,54.7
	s44,48.5,97.2,82.9c53.3,34.4,62.3,20.3,115.5,54.7c53.2,34.4,44,48.5,97.2,82.9s62.3,20.3,115.5,54.7c53.2,34.4,44,48.5,97.2,82.9
	c53.3,34.4,62.3,20.3,115.5,54.7"/>
<path class="st0" d="M-246.9,499.4c53.1,34.4,62.3,20.3,115.2,54.6c53.2,34.4,44,48.5,97.2,82.9c53.3,34.4,62.3,20.3,115.5,54.7
	s44,48.5,97.2,82.9c53.3,34.4,62.3,20.3,115.5,54.7c53.2,34.4,44,48.5,97.2,82.9s62.3,20.3,115.5,54.7c53.2,34.4,44,48.5,97.2,82.9
	c53.3,34.4,62.3,20.3,115.5,54.7"/>
<path class="st0" d="M-253.3,509.2c53.1,34.4,62.3,20.3,115.5,54.7c53.1,34.4,43.9,48.5,97.2,82.9s62.3,20.3,115.5,54.7
	s44.1,48.6,97.2,82.9c53.2,34.4,62.2,20.2,115.4,54.7c53.2,34.4,44,48.5,97.2,82.9c53.3,34.4,62.3,20.3,115.5,54.7
	s43.9,48.5,97.2,82.9c53.3,34.4,62.3,20.3,115.5,54.7"/>
<path class="st0" d="M-259.6,519.1c53.1,34.4,62.3,20.3,115.5,54.7c53.1,34.4,43.9,48.5,97.2,82.9S15.3,677,68.5,711.4
	s44.1,48.6,97.2,82.9c53.2,34.4,62.2,20.2,115.4,54.7c53.2,34.4,44,48.5,97.2,82.9c53.3,34.4,62.3,20.3,115.5,54.7
	c53.1,34.4,43.9,48.5,97.2,82.9c53.3,34.4,62.3,20.3,115.5,54.7"/>
</svg>
