<svg id="Layer_1" data-name="Layer 1" xmlns="http://www.w3.org/2000/svg" viewBox="0 0 1920 1080"><defs><style>.cls-1{fill:none;stroke:#7cdfa8;stroke-miterlimit:10;}</style></defs><title>background-info</title><path class="cls-1" d="M1305.09,1080.38c42.61-46.81,55-35.5,97.71-82.38s30.19-58.12,72.87-105,55-35.5,97.71-82.38,30.19-58.12,72.87-105,55-35.5,97.71-82.38,30.19-58.12,72.87-105,55-35.5,97.71-82.38,30.19-58.12,72.87-105,55-35.5,97.71-82.38"/><path class="cls-1" d="M1313.74,1088.26c42.61-46.81,55-35.5,97.71-82.38s30.19-58.12,72.87-105,55-35.5,97.71-82.38,30.19-58.12,72.87-105,55-35.5,97.71-82.38,30.19-58.12,72.87-105,55-35.5,97.71-82.38,30.19-58.12,72.87-105,55-35.5,97.71-82.38"/><path class="cls-1" d="M1322.39,1096.14c42.61-46.81,55-35.5,97.71-82.38s30.19-58.12,72.87-105,55-35.5,97.71-82.38,30.19-58.12,72.87-105,55-35.5,97.71-82.38,30.19-58.12,72.87-105,55-35.5,97.71-82.38,30.19-58.12,72.87-105,55-35.5,97.71-82.38"/><path class="cls-1" d="M1331,1104c42.61-46.81,55-35.5,97.71-82.38s30.19-58.12,72.8-104.93,55-35.5,97.71-82.38,30.19-58.12,72.87-105,55-35.5,97.71-82.38,30.19-58.12,72.87-105,55-35.5,97.71-82.38,30.12-58,72.73-104.85,55.1-35.57,97.71-82.38"/><path class="cls-1" d="M1339.69,1111.89c42.61-46.81,55-35.5,97.71-82.38s30.19-58.12,72.87-105,55-35.5,97.71-82.38,30.19-58.12,72.87-105,55-35.5,97.71-82.38,30.19-58.12,72.87-105,55-35.5,97.71-82.38,30.19-58.12,72.87-105,55-35.5,97.71-82.38"/><path class="cls-1" d="M1348.27,1119.7c42.61-46.81,55-35.5,97.71-82.38s30.19-58.12,72.87-105,55-35.5,97.71-82.38,30.19-58.12,72.87-105,55-35.5,97.71-82.38,30.19-58.12,72.87-105,55-35.5,97.71-82.38,30.19-58.12,72.87-105,55-35.5,97.71-82.38"/><path class="cls-1" d="M1356.92,1127.57c42.61-46.81,55-35.5,97.71-82.38s30.19-58.12,72.8-104.93,55-35.5,97.71-82.38,30.19-58.12,72.87-105,55-35.5,97.71-82.38,30.19-58.12,72.87-105,55-35.5,97.71-82.38,30.12-58,72.73-104.85,55.1-35.57,97.71-82.38"/><path class="cls-1" d="M1365.58,1135.45c42.61-46.81,55-35.5,97.71-82.38s30.19-58.12,72.87-105,55-35.5,97.71-82.38,30.19-58.12,72.87-105,55-35.5,97.71-82.38,30.19-58.12,72.87-105,55-35.5,97.71-82.38,30.19-58.12,72.87-105,55-35.5,97.71-82.38"/><path class="cls-1" d="M1374.23,1143.33c42.61-46.81,55-35.5,97.71-82.38s30.19-58.12,72.87-105,55-35.5,97.71-82.38,30.19-58.12,72.87-105,55-35.5,97.71-82.38,30.19-58.12,72.87-105,55-35.5,97.71-82.38,30.19-58.12,72.87-105,55-35.5,97.71-82.38"/><path class="cls-1" d="M1382.81,1151.14c42.61-46.81,55-35.5,97.71-82.38s30.19-58.12,72.8-104.93,55-35.5,97.71-82.38,30.19-58.12,72.87-105,55-35.5,97.71-82.38,30.19-58.12,72.87-105,55-35.5,97.71-82.38c42.62-46.67,30.12-58,72.73-104.85s55.18-35.51,97.79-82.32"/><path class="cls-1" d="M1391.46,1159c42.61-46.81,55-35.5,97.71-82.38s30.19-58.12,72.87-105,55-35.5,97.71-82.38,30.19-58.12,72.87-105,55-35.5,97.71-82.38,30.19-58.12,72.87-105,55-35.5,97.71-82.38,30.19-58.12,72.87-105,55-35.5,97.71-82.38"/><path class="cls-1" d="M1400.11,1166.89c42.61-46.81,55-35.5,97.71-82.38s30.19-58.12,72.87-105,55-35.5,97.71-82.38,30.19-58.12,72.87-105,55-35.5,97.71-82.38,30.19-58.12,72.87-105,55-35.5,97.71-82.38,30.19-58.12,72.87-105,55-35.5,97.71-82.38"/><path class="cls-1" d="M1408.76,1174.76c42.61-46.81,55-35.5,97.71-82.38s30.19-58.12,72.87-105,55-35.5,97.71-82.38,30.19-58.12,72.87-105,55-35.5,97.71-82.38,30.19-58.12,72.87-105,55-35.5,97.71-82.38,30.19-58.12,72.87-105,55-35.5,97.71-82.38"/><path class="cls-1" d="M1417.41,1182.64c42.61-46.81,55-35.5,97.71-82.38s30.19-58.12,72.87-105,55-35.5,97.71-82.38,30.19-58.12,72.87-105,55-35.5,97.71-82.38,30.19-58.12,72.87-105,55-35.5,97.71-82.38,30.19-58.12,72.87-105,55-35.5,97.71-82.38"/><path class="cls-1" d="M1426,1190.45c42.61-46.81,55-35.5,97.71-82.38s30.19-58.12,72.87-105,55-35.5,97.71-82.38,30.19-58.12,72.87-105,55-35.5,97.71-82.38,30.19-58.12,72.87-105,55-35.5,97.71-82.38,30.19-58.12,72.87-105,55-35.5,97.71-82.38"/><path class="cls-1" d="M1434.64,1198.33c42.61-46.81,55-35.5,97.71-82.38s30.19-58.12,72.87-105,55-35.5,97.71-82.38,30.19-58.12,72.87-105,55-35.5,97.71-82.38,30.19-58.12,72.87-105,55-35.5,97.71-82.38,30.19-58.12,72.87-105,55-35.5,97.71-82.38"/><path class="cls-1" d="M1443.3,1206.2c42.61-46.81,55-35.5,97.71-82.38s30.19-58.12,72.87-105,55-35.5,97.71-82.38,30.19-58.12,72.87-105,55-35.5,97.71-82.38,30.19-58.12,72.87-105,55-35.5,97.71-82.38,30.19-58.12,72.87-105,55-35.5,97.71-82.38"/><path class="cls-1" d="M1451.95,1214.08c42.61-46.81,55-35.5,97.71-82.38s30.19-58.12,72.87-105,55-35.5,97.71-82.38,30.19-58.12,72.87-105,55-35.5,97.71-82.38,30.19-58.12,72.87-105,55-35.5,97.71-82.38,30.19-58.12,72.87-105,55-35.5,97.71-82.38"/><path class="cls-1" d="M1460.53,1221.89c42.61-46.81,55-35.5,97.71-82.38s30.19-58.12,72.87-105,55-35.5,97.71-82.38,30.19-58.12,72.87-105,55-35.36,97.65-82.17,30.19-58.12,72.87-105,55-35.5,97.71-82.38,30.19-58.12,72.87-105,55-35.5,97.65-82.31"/><path class="cls-1" d="M1469.18,1229.76c42.61-46.81,55-35.5,97.71-82.38s30.19-58.12,72.87-105,55-35.5,97.71-82.38,30.19-58.12,72.87-105,55-35.5,97.71-82.38,30.19-58.12,72.87-105,55-35.5,97.71-82.38,30.19-58.12,72.87-105,55-35.5,97.71-82.38"/><path class="cls-1" d="M1477.83,1237.64c42.61-46.81,55-35.5,97.71-82.38s30.19-58.12,72.87-105,55-35.5,97.71-82.38,30.19-58.12,72.87-105,55-35.5,97.71-82.38,30.19-58.12,72.87-105,55-35.5,97.71-82.38,30.19-58.12,72.87-105,55-35.5,97.71-82.38"/><path class="cls-1" d="M1486.48,1245.51c42.61-46.81,55-35.5,97.71-82.38s30.19-58.12,72.87-105,55-35.5,97.71-82.38,30.19-58.12,72.87-105,55-35.43,97.58-82.24,30.19-58.12,72.87-105,55-35.5,97.71-82.38,30.19-58.12,72.87-105,55-35.5,97.65-82.31"/><path class="cls-1" d="M1495.06,1253.32c42.61-46.81,55-35.5,97.71-82.38s30.19-58.12,72.87-105,55-35.5,97.71-82.38,30.19-58.12,72.87-105,55-35.5,97.71-82.38,30.19-58.12,72.87-105,55-35.5,97.71-82.38,30.19-58.12,72.87-105,55-35.5,97.71-82.38"/><path class="cls-1" d="M1503.71,1261.2c42.61-46.81,55-35.5,97.71-82.38s30.19-58.12,72.87-105,55-35.5,97.71-82.38,30.19-58.12,72.87-105,55-35.5,97.71-82.38,30.19-58.12,72.87-105,55-35.5,97.71-82.38,30.19-58.12,72.87-105,55-35.5,97.71-82.38"/><path class="cls-1" d="M1512.36,1269.08c42.61-46.81,55-35.5,97.71-82.38s30.19-58.12,72.87-105,55-35.5,97.71-82.38,30.19-58.12,72.87-105,55-35.43,97.58-82.24,30.19-58.12,72.87-105,55-35.5,97.71-82.38,30.19-58.12,72.87-105,55-35.5,97.65-82.31"/><path class="cls-1" d="M1521,1277c42.61-46.81,55-35.5,97.71-82.38s30.19-58.12,72.87-105,55-35.5,97.71-82.38,30.19-58.12,72.87-105,55-35.5,97.71-82.38,30.19-58.12,72.87-105,55-35.5,97.71-82.38,30.19-58.12,72.87-105,55-35.5,97.71-82.38"/><path class="cls-1" d="M1529.67,1284.83c42.61-46.81,55-35.5,97.71-82.38s30.19-58.12,72.87-105,55-35.5,97.71-82.38,30.19-58.12,72.87-105,55-35.5,97.71-82.38,30.19-58.12,72.87-105,55-35.5,97.71-82.38,30.19-58.12,72.87-105,55-35.5,97.71-82.38"/><path class="cls-1" d="M1538.25,1292.64c42.61-46.81,55-35.5,97.71-82.38s30.19-58.12,72.87-105,55-35.5,97.71-82.38,30.19-58.12,72.87-105,55-35.43,97.58-82.24,30.19-58.12,72.87-105,55-35.5,97.71-82.38,30.19-58.12,72.87-105,55-35.5,97.65-82.31"/><path class="cls-1" d="M1546.9,1300.51c42.61-46.81,55-35.5,97.71-82.38s30.19-58.12,72.87-105,55-35.5,97.71-82.38,30.19-58.12,72.87-105,55-35.5,97.71-82.38,30.19-58.12,72.87-105,55-35.5,97.71-82.38,30.19-58.12,72.87-105,55-35.5,97.71-82.38"/><path class="cls-1" d="M1555.55,1308.39c42.61-46.81,55-35.5,97.71-82.38s30.19-58.12,72.87-105,55-35.5,97.71-82.38,30.19-58.12,72.87-105,55-35.5,97.71-82.38,30.19-58.12,72.87-105,55-35.5,97.71-82.38,30.19-58.12,72.87-105,55-35.5,97.71-82.38"/><path class="cls-1" d="M1564.2,1316.27c42.61-46.81,55-35.5,97.71-82.38s30.19-58.12,72.87-105,55-35.5,97.71-82.38,30.19-58.12,72.87-105,55-35.43,97.58-82.24,30.19-58.12,72.87-105,55-35.5,97.71-82.38,30.19-58.12,72.87-105,55-35.5,97.65-82.31"/><path class="cls-1" d="M1572.78,1324.07c42.61-46.81,55-35.5,97.71-82.38s30.19-58.12,72.87-105,55-35.5,97.71-82.38,30.19-58.12,72.87-105,55-35.5,97.71-82.38,30.19-58.12,72.87-105,55-35.5,97.71-82.38,30.19-58.12,72.87-105c42.48-46.66,55-35.28,97.59-82.09"/><path class="cls-1" d="M1581.43,1332c42.61-46.81,55-35.5,97.71-82.38s30.19-58.12,72.87-105,55-35.5,97.71-82.38,30.19-58.12,72.87-105,55-35.43,97.58-82.24,30.19-58.12,72.87-105,55-35.5,97.71-82.38,30.19-58.12,72.87-105,55-35.5,97.65-82.31"/><path class="cls-1" d="M1590.08,1339.83c42.61-46.81,55-35.5,97.71-82.38s30.19-58.12,72.87-105,55-35.5,97.71-82.38,30.19-58.12,72.87-105,55-35.5,97.71-82.38,30.19-58.12,72.87-105,55-35.5,97.71-82.38,30.19-58.12,72.87-105c42.48-46.66,54.9-35.35,97.51-82.16"/><path class="cls-1" d="M1598.74,1347.7c42.61-46.81,55-35.5,97.71-82.38s30.19-58.12,72.8-104.93,55-35.5,97.71-82.38,30.19-58.12,72.87-105,55-35.5,97.65-82.31,30.26-58.19,72.87-105,55-35.5,97.71-82.38,30.19-58.12,72.8-104.93,55.1-35.57,97.71-82.38"/><path class="cls-1" d="M1607.39,1355.58c42.61-46.81,55-35.5,97.71-82.38s30.19-58.12,72.87-105,55-35.5,97.71-82.38,30.19-58.12,72.87-105,55-35.5,97.71-82.38,30.19-58.12,72.87-105,55-35.5,97.71-82.38,30.19-58.12,72.87-105c42.48-46.66,54.9-35.35,97.51-82.16"/><path class="cls-1" d="M1616,1363.39c42.61-46.81,55-35.5,97.71-82.38s30.19-58.12,72.87-105,55-35.5,97.71-82.38,30.19-58.12,72.87-105,55-35.5,97.71-82.38,30.19-58.12,72.87-105,55-35.5,97.71-82.38,30.19-58.12,72.87-105c42.48-46.66,54.9-35.35,97.51-82.16"/><path class="cls-1" d="M1624.62,1371.26c42.61-46.81,55-35.5,97.71-82.38s30.19-58.12,72.8-104.93,55-35.5,97.71-82.38,30.19-58.12,72.87-105,55-35.5,97.65-82.31,30.26-58.19,72.87-105,55-35.5,97.71-82.38,30.19-58.12,72.8-104.93,55.1-35.57,97.71-82.38"/><path class="cls-1" d="M1633.27,1379.14c42.61-46.81,55-35.5,97.71-82.38s30.19-58.12,72.8-104.93,55-35.5,97.71-82.38,30.19-58.12,72.87-105,55-35.5,97.65-82.31,30.19-58.12,72.87-105,55-35.5,97.71-82.38,30.19-58.12,72.8-104.93,55.1-35.57,97.71-82.38"/></svg>