<?xml version="1.0" encoding="utf-8"?>
<!-- Generator: Adobe Illustrator 19.1.0, SVG Export Plug-In . SVG Version: 6.00 Build 0)  -->
<!DOCTYPE svg PUBLIC "-//W3C//DTD SVG 1.1//EN" "http://www.w3.org/Graphics/SVG/1.1/DTD/svg11.dtd">
<svg version="1.1" id="Layer_1" xmlns="http://www.w3.org/2000/svg" xmlns:xlink="http://www.w3.org/1999/xlink" x="0px" y="0px"
	 viewBox="0 0 1172.1 894" style="enable-background:new 0 0 1172.1 894;" xml:space="preserve">
<style type="text/css">
	.st0{fill:#FF6C36;}
	.st1{fill:#FFFFFF;}
	.st2{fill:#FFB897;}
</style>
<polygon class="st0" points="598.7,652.1 598.7,240.1 0,0 0,783.5 "/>
<g>
	<path class="st1" d="M452.9,556.5h-47.3V394.2c0,0,30.6,0,41.8,0c7.4,0,41.8,1.9,41.8,36.7c0,0,0.2,78.7,0.2,88.5
		C489.3,540.1,476.2,556.5,452.9,556.5z M461.6,439.1c0-14.4-5.5-21.2-16.1-21.2h-12.5v115c0,0,10.6,0,16.3,0s12.3-4.9,12.3-14
		C461.6,518.9,461.6,445.5,461.6,439.1z"/>
	<path class="st1" d="M504.6,556.5V394.2h28.2v162.3H504.6z"/>
	<path class="st1" d="M588.7,560.1c-23.8,0-42-12.3-42-39.5v-18.2h28.6c0,0,0,14.4,0,19.3c0,7,4,14.4,13.6,14.4
		c10.4,0,13.6-6.6,13.6-14c0,0,0.2-3.2,0-13.4c-0.6-22.5-54.7-28.6-54.7-65.3v-19.7c0-19.5,18.9-33.1,40.1-33.1
		c20.2,0,41.6,12.1,41.6,33.3v22.9h-28.2c0,0,0.2-17.2,0.2-18.9c0-3.4-1.1-12.7-13.4-12.7c-9.1,0-12.1,7.4-12.1,11.9
		c0,0,0,8.3,0,9.3c0,29.7,56,29.3,56,68.3v20.2C632,549.5,608.2,560.1,588.7,560.1z"/>
</g>
<polygon class="st2" points="598.7,724.5 598.7,240.1 1172.1,86.5 1172.1,894 "/>
<g>
	<path class="st1" d="M679.6,418.1v138.3h-28.9V418.6h-31.4v-24.4h91v24H679.6z"/>
	<path class="st1" d="M726.9,556.5V394.2h28.2v162.3H726.9z"/>
	<path class="st1" d="M772.3,556.5V394.2h28v138.5h44.1v23.8H772.3z"/>
	<path class="st1" d="M856.6,556.5V394.2h28v138.5h44.1v23.8H856.6z"/>
</g>
</svg>
