<?xml version="1.0" encoding="utf-8"?>
<!-- Generator: Adobe Illustrator 19.1.0, SVG Export Plug-In . SVG Version: 6.00 Build 0)  -->
<!DOCTYPE svg PUBLIC "-//W3C//DTD SVG 1.1//EN" "http://www.w3.org/Graphics/SVG/1.1/DTD/svg11.dtd">
<svg version="1.1" id="Layer_1" xmlns="http://www.w3.org/2000/svg" xmlns:xlink="http://www.w3.org/1999/xlink" x="0px" y="0px"
	 viewBox="-335.9 277 160 60" style="enable-background:new -335.9 277 160 60;" xml:space="preserve">
<style type="text/css">
	.st0{fill:#FFFFFF;}
</style>
<g>
	<path class="st0" d="M-256.7,309.9c0-1.4-1.2-1.9-2.9-2.5c-1.7-0.5-3.5-1.3-3.5-3.4c0-1.9,1.6-3.3,3.8-3.3c1.4,0,2.5,0.4,3.6,1
		l-0.4,1c-0.8-0.6-2-0.9-3.1-0.9c-1.8,0-2.6,0.9-2.6,2c0,1.3,1.2,1.8,2.9,2.4c1.7,0.5,3.5,1.3,3.5,3.5c0,2-1.6,3.4-4,3.4
		c-1.5,0-2.7-0.4-3.8-1l0.4-1c0.9,0.6,2.1,1,3.4,1C-257.9,312.1-256.7,311.2-256.7,309.9z"/>
	<path class="st0" d="M-243.8,313h-1.3l-1.2-3.4h-5.3l-1.3,3.4h-1.3l4.5-11.9h1.5L-243.8,313z M-249,302.4l-2.3,6.2h4.5L-249,302.4z
		"/>
	<path class="st0" d="M-233.5,301.2h1.2v12h-1.3l-6.7-10.2v10.1h-1.2v-11.9h1.4l6.7,10.2v-10.2H-233.5z"/>
	<path class="st0" d="M-221.2,313c-0.5,0-3.1,0-3.1,0v-11.7c0,0,2.7,0,3.3,0c3.9,0,6.3,2.3,6.3,5.8
		C-214.9,310.7-217.2,313-221.2,313z M-221.2,302.3h-1.9v9.5h2c3,0,5-1.6,5-4.8C-216,304.1-217.9,302.3-221.2,302.3z"/>
	<path class="st0" d="M-212.5,313v-11.7h1.2v11.9h-1.2V313z"/>
	<path class="st0" d="M-208.3,313v-11.7h7.1v1.2h-6v4.2h4.9v1h-4.9v4.2h6v1.2H-208.3z"/>
	<path class="st0" d="M-193.6,313.2c-3.5,0-5.7-2.4-5.7-6.1c0-3.8,2.4-6.2,5.7-6.2c1.5,0,2.8,0.4,3.8,0.9l-0.4,1
		c-0.8-0.5-2.1-0.9-3.4-0.9c-2.5,0-4.4,1.8-4.4,5c0,3.1,1.8,5,4.5,5c1.2,0,2.1-0.3,2.8-0.7V308h-3.5v-1h4.6v4.9
		C-190.7,312.9-192.2,313.2-193.6,313.2z"/>
	<path class="st0" d="M-181.6,313.2c-3.3,0-5.8-2.5-5.8-6.1c0-3.6,2.4-6.2,5.8-6.2c3.3,0,5.8,2.4,5.8,6.1
		C-175.8,310.7-178.3,313.2-181.6,313.2z M-181.6,302c-2.6,0-4.5,2-4.5,5s2,5.1,4.6,5.1s4.5-2.1,4.5-5
		C-177,304.1-178.9,302-181.6,302z"/>
</g>
<g>
	<path class="st0" d="M-335.9,277v37.2c0-0.1,1-0.3,1.4-0.7c0.1-0.1,13.2-14.3,13.5-14.6c0-0.1,0.1,0,0.1,0s-0.1,13.6-0.1,13.7
		c0,0.3,0,0.6,0.4,0.7c0.4,0.3,1.7,0.9,1.9,0.9c0,0.1-7.6-0.1-7.6-0.1s2.4-0.9,2.6-0.9c0.3-0.1,0.4-0.1,0.4-0.7
		c0-0.4,0.1-3.7,0.1-3.9c0-0.1,0.1-0.6-0.4-0.6c-0.3,0-1-0.1-1.9-0.1c-0.9,0-2,0-2.1,0c-0.6,0-0.7,0-1,0.3c-0.3,0.1-3.7,4.6-3.9,4.7
		c-0.1,0.3-0.1,0.4,0.3,0.6c0.4,0.1,2.6,0.6,3.2,0.7c0.1,0,0.1,0.1,0,0.1c-0.1,0-6.9,0-6.9,0V337h60v-60H-335.9z M-310.5,300.3
		c-0.4,0.1-0.4,0.3-0.6,0.6c0,0.3-2.9,11.9-2.9,12c0,0.3,0,0.4,0.3,0.6c0.3,0.1,1.9,0.7,2,0.7c0.1,0,0.1,0.1,0,0.1
		c-0.1,0-6.6,0-6.7,0c-0.1,0-0.1,0-0.1-0.1c0.1,0,1.6-0.6,1.7-0.7c0.1,0,0.6-0.1,0.6-0.6c0.1-0.3,2.9-11.9,3-12.2
		c0-0.3,0-0.6-0.3-0.7c0,0.1-1.7-0.4-1.9-0.6h7c0.1,0,0.1,0,0,0.1c-0.1,0-1.3,0.4-1.4,0.4C-309.9,300.1-310.4,300.2-310.5,300.3z
		 M-296.8,313.5c-0.1,0.1-2.6,1-4.9,1c-5.9,0.1-8-4-7-7.7c0.6-2,1.9-3.9,3.4-5.2c1-0.7,3.7-2.4,7.3-2.4c0.7,0,2.4,0.1,3.7,0.4
		c0.6,0.1,0.6,0.6,0.4,0.7c0,0.1-1.4,4.3-1.4,4.4c0.1,0.1,0,0.1,0,0c0-0.1,0.1-3.7,0.1-3.9c0-0.4,0-0.6-0.4-0.7
		c-0.6-0.1-3.4-0.4-5.6,0.6c-3.6,1.7-5.6,5.6-5.3,8.6c0.3,2.6,2.3,4.6,5.6,4.7c1,0,1.7-0.1,2-0.1c0.3-0.1,0.4-0.1,0.4-0.4
		c0-0.1,0.6-2.4,0.6-2.6c0-0.1,0.1-0.4-0.1-0.6c-0.3-0.1-3.2-0.9-3.4-0.9c-0.1,0-0.1-0.1,0-0.1c0.1,0,5.2,0,5.4,0
		c0.3,0,0.9,0,0.6,0.4c-0.1,0.6-1,3.2-1,3.3C-296.3,313.2-296.6,313.4-296.8,313.5z M-286.3,314.1c0,0,2.4-0.9,2.6-0.9
		c0.3-0.1,0.4-0.1,0.4-0.7c0-0.4,0.1-3.7,0.1-3.9c0-0.1,0.1-0.6-0.4-0.6c-0.3,0-1-0.1-1.9-0.1c-0.9,0-2,0-2.1,0c-0.6,0-0.7,0-1,0.3
		c-0.3,0.1-3.7,4.6-3.9,4.7c-0.1,0.3-0.1,0.4,0.3,0.6c0.4,0.1,2.6,0.6,3.2,0.7c0.1,0,0.1,0.1,0,0.1c-0.1,0-6.9,0-6.9,0v-0.1
		c0,0,1-0.3,1.4-0.7c0.1-0.1,13.2-14.3,13.5-14.6c0-0.1,0.1,0,0.1,0s-0.1,13.6-0.1,13.7c0,0.3,0,0.6,0.4,0.7
		c0.4,0.3,1.7,0.9,1.9,0.9C-278.7,314.4-286.3,314.1-286.3,314.1z"/>
	<path class="st0" d="M-283.2,302.5c-0.1,0.1-3.9,4.2-4,4.4c-0.3,0.3-0.3,0.6,0.3,0.6c0,0,3.2,0,3.6,0c0.4,0,0.6-0.1,0.6-0.4
		c0-0.3,0-4,0.1-4.4C-282.6,302.2-282.9,302.2-283.2,302.5z"/>
	<path class="st0" d="M-323.3,307.5c0.4,0,0.6-0.1,0.6-0.4c0-0.3,0-4,0-4.4c0-0.4-0.3-0.4-0.6-0.1c-0.1,0.1-3.9,4.2-4,4.4
		c-0.1,0.3-0.1,0.6,0.4,0.6C-326.8,307.5-323.7,307.5-323.3,307.5z"/>
</g>
</svg>
