<?xml version="1.0" encoding="utf-8"?>
<!-- Generator: Adobe Illustrator 19.1.0, SVG Export Plug-In . SVG Version: 6.00 Build 0)  -->
<!DOCTYPE svg PUBLIC "-//W3C//DTD SVG 1.1//EN" "http://www.w3.org/Graphics/SVG/1.1/DTD/svg11.dtd">
<svg version="1.1" id="Layer_1" xmlns="http://www.w3.org/2000/svg" xmlns:xlink="http://www.w3.org/1999/xlink" x="0px" y="0px"
	 viewBox="0 0 368 111.3" style="enable-background:new 0 0 368 111.3;" xml:space="preserve">
<style type="text/css">
	.st0{fill:#FFFFFF;}
</style>
<g>
	<g>
		<path class="st0" d="M31.1,108.9H0V2.4c0,0,20.1,0,27.4,0c4.9,0,27.4,1.3,27.4,24.1c0,0,0.1,51.7,0.1,58.1
			C55,98.2,46.4,108.9,31.1,108.9z M36.8,31.9c0-9.5-3.6-13.9-10.6-13.9H18v75.5c0,0,7,0,10.7,0c3.8,0,8.1-3.2,8.1-9.2
			C36.8,84.3,36.8,36.1,36.8,31.9z"/>
		<path class="st0" d="M68,108.9V2.4h18.5v106.6H68z"/>
	</g>
	<g>
		<path class="st0" d="M125.8,111.3c-15.6,0-27.6-8.1-27.6-25.9v-12H117c0,0,0,9.5,0,12.7c0,4.6,2.6,9.5,8.9,9.5
			c6.8,0,8.9-4.3,8.9-9.2c0,0,0.1-2.1,0-8.8c-0.4-14.8-35.9-18.8-35.9-42.9v-13C98.9,8.9,111.3,0,125.2,0c13.2,0,27.3,7.9,27.3,21.9
			v15H134c0,0,0.1-11.3,0.1-12.4c0-2.2-0.7-8.4-8.8-8.4c-6,0-7.9,4.9-7.9,7.8c0,0,0,5.4,0,6.1c0,19.5,36.8,19.2,36.8,44.9v13.2
			C154.2,104.3,138.6,111.3,125.8,111.3z"/>
	</g>
	<g>
		<path class="st0" d="M200.2,18.1v90.8h-18.9V18.4h-20.6v-16h59.8v15.7H200.2z"/>
		<path class="st0" d="M231.1,108.9V2.4h18.5v106.6H231.1z"/>
		<path class="st0" d="M262.6,108.9V2.4h18.4v91h29v15.6H262.6z"/>
		<path class="st0" d="M320.6,108.9V2.4H339v91h29v15.6H320.6z"/>
	</g>
</g>
</svg>
