<?xml version="1.0" encoding="utf-8"?>
<!-- Generator: Adobe Illustrator 19.2.0, SVG Export Plug-In . SVG Version: 6.00 Build 0)  -->
<!DOCTYPE svg PUBLIC "-//W3C//DTD SVG 1.1//EN" "http://www.w3.org/Graphics/SVG/1.1/DTD/svg11.dtd">
<svg version="1.1" id="Layer_1" xmlns="http://www.w3.org/2000/svg" xmlns:xlink="http://www.w3.org/1999/xlink" x="0px" y="0px"
	 viewBox="0 0 93 100" style="enable-background:new 0 0 93 100;" xml:space="preserve">
<style type="text/css">
	.st0{fill:#FFFFFF;}
</style>
<g>
	<path class="st0" d="M0,4.3c0.2,0,0.4,0,0.5,0c12.7,0,25.4,0,38,0c0.2,0,0.4,0,0.5,0c0,2.9,0,5.7,0,8.6c-0.2,0-0.4,0-0.4,0
		c-2.1,0-4.5,0-6.8,0c-0.4,0-0.9,0-1.3,0.2c-1.4,0.4-2.1,1.6-1.8,3c0.2,0.9,0.7,1.8,1.1,2.5c1.4,2.5,2.9,5,4.5,7.5
		c5.7,9.8,11.4,19.6,17.1,29.3c0.7,1.3,1.4,2.3,2,3.6c0.2,0.2,0.2,0.5,0.2,0.7c0,9.5,0,19.1,0,28.6c0,0.4,0,0.7,0.2,1.1
		c0.4,1.4,1.3,2.1,2.7,2.3c0.4,0,0.9,0,1.3,0c2.3,0,4.8,0,7.1,0c0.2,0,0.2,0,0.4,0c0,2.9,0,5.7,0,8.4c-13.8,0-27.7,0-41.4,0
		c0-2.9,0-5.5,0-8.4c0.2,0,0.2,0,0.4,0c2.5,0,5,0,7.7,0c0.5,0,0.9,0,1.4-0.2c1.3-0.4,2-1.3,2-2.5c0-0.4,0-0.7,0-1.1
		c0-8.6,0-17.1,0-25.7c0-0.2,0-0.4-0.2-0.5c-4.8-8.4-9.6-16.6-14.6-24.8C16.6,30,12.7,23.4,8.7,16.6c-0.4-0.7-0.9-1.4-1.4-2
		c-1.1-1.3-2.5-1.8-4.1-2c-1.1,0-2.1,0-3.2,0C0,10,0,7.1,0,4.3z"/>
	<path class="st0" d="M93,20c0,0.5-0.2,1.3-0.2,1.8c-0.5,3.2-2,6.1-3.9,8.7c-2.5,3-5.4,5.4-8.7,7.3c-3.9,2.3-7.9,4.1-12.3,5
		c-0.9,0.2-2,0.4-3,0.5h-0.2c2.3-3.8,4.6-7.5,7-11.2c-0.2,0-0.4,0-0.5,0c-4.8-0.2-9.3-1.4-13.2-4.3c-3-2.3-4.8-5.4-5.4-9.1
		c-0.4-2.9-0.2-5.5,0.9-8.2C54.6,7.3,57,4.8,60,3c2.3-1.4,4.8-2.1,7.5-2.7c1.1-0.2,2-0.2,3-0.4c0.2,0,0.2,0,0.4,0c1.3,0,2.5,0,3.8,0
		h0.2c0.7,0,1.4,0.2,2,0.2c2.5,0.4,4.8,1.1,7,2.1c5.2,2.9,8.2,7.3,9.1,13.2c0,0.5,0.2,1.1,0.2,1.4C93,18,93,19.1,93,20z"/>
</g>
</svg>
