<?xml version="1.0" encoding="utf-8"?>
<!-- Generator: Adobe Illustrator 19.1.0, SVG Export Plug-In . SVG Version: 6.00 Build 0)  -->
<!DOCTYPE svg PUBLIC "-//W3C//DTD SVG 1.1//EN" "http://www.w3.org/Graphics/SVG/1.1/DTD/svg11.dtd">
<svg version="1.1" id="Layer_1" xmlns="http://www.w3.org/2000/svg" xmlns:xlink="http://www.w3.org/1999/xlink" x="0px" y="0px"
	 viewBox="0 0 523.2 169.5" style="enable-background:new 0 0 523.2 169.5;" xml:space="preserve">
<style type="text/css">
	.st0{fill:#FFFFFF;}
</style>
<g>
	<g>
		<path class="st0" d="M47.3,165.9H0V3.6c0,0,30.6,0,41.8,0c7.4,0,41.8,1.9,41.8,36.7c0,0,0.2,78.7,0.2,88.5
			C83.8,149.6,70.6,165.9,47.3,165.9z M56,48.6c0-14.4-5.5-21.2-16.1-21.2H27.4v115c0,0,10.6,0,16.3,0s12.3-4.9,12.3-14
			C56,128.4,56,54.9,56,48.6z"/>
		<path class="st0" d="M99,165.9V3.6h28.2v162.3H99z"/>
	</g>
	<g>
		<path class="st0" d="M193.2,108.7V73.3c-12-7.3-22.7-14.5-22.7-27.5c0-1.1,0-9.3,0-9.3c0-4.5,3-11.9,12.1-11.9
			c5.5,0,8.7,1.9,10.6,4.2V1.2c-3.6-0.8-7.2-1.2-10.9-1.2c-21.2,0-40.1,13.6-40.1,33.1v19.7C142.2,83.8,180.8,93,193.2,108.7z"/>
		<path class="st0" d="M193.2,142.3c-2.1,2-5.3,3.3-9.8,3.3c-9.5,0-13.6-7.4-13.6-14.4c0-4.9,0-19.3,0-19.3h-28.6v18.2
			c0,27.2,18.2,39.5,42,39.5c3.3,0,6.6-0.3,10-0.9V142.3z"/>
	</g>
	<g>
		<path class="st0" d="M274.1,27.6v138.3h-28.9V28h-31.4V3.6h91v24H274.1z"/>
		<path class="st0" d="M321.4,165.9V3.6h28.2v162.3H321.4z"/>
		<path class="st0" d="M366.8,165.9V3.6h28v138.5h44.1v23.8H366.8z"/>
		<path class="st0" d="M451,165.9V3.6h28v138.5h44.1v23.8H451z"/>
	</g>
</g>
</svg>
