<?xml version="1.0" encoding="utf-8"?>
<!-- Generator: Adobe Illustrator 19.1.0, SVG Export Plug-In . SVG Version: 6.00 Build 0)  -->
<!DOCTYPE svg PUBLIC "-//W3C//DTD SVG 1.1//EN" "http://www.w3.org/Graphics/SVG/1.1/DTD/svg11.dtd">
<svg version="1.1" id="Layer_1" xmlns="http://www.w3.org/2000/svg" xmlns:xlink="http://www.w3.org/1999/xlink" x="0px" y="0px"
	 viewBox="-330.2 279.1 52.1 56" style="enable-background:new -330.2 279.1 52.1 56;" xml:space="preserve">
<style type="text/css">
	.st0{fill:#FFFFFF;}
</style>
<g>
	<path class="st0" d="M-330.2,281.5c0.1,0,0.2,0,0.3,0c7.1,0,14.2,0,21.3,0c0.1,0,0.2,0,0.3,0c0,1.6,0,3.2,0,4.8c-0.1,0-0.2,0-0.2,0
		c-1.2,0-2.5,0-3.8,0c-0.2,0-0.5,0-0.7,0.1c-0.8,0.2-1.2,0.9-1,1.7c0.1,0.5,0.4,1,0.6,1.4c0.8,1.4,1.6,2.8,2.5,4.2
		c3.2,5.5,6.4,11,9.6,16.4c0.4,0.7,0.8,1.3,1.1,2c0.1,0.1,0.1,0.3,0.1,0.4c0,5.3,0,10.7,0,16c0,0.2,0,0.4,0.1,0.6
		c0.2,0.8,0.7,1.2,1.5,1.3c0.2,0,0.5,0,0.7,0c1.3,0,2.7,0,4,0c0.1,0,0.1,0,0.2,0c0,1.6,0,3.2,0,4.7c-7.7,0-15.5,0-23.2,0
		c0-1.6,0-3.1,0-4.7c0.1,0,0.1,0,0.2,0c1.4,0,2.8,0,4.3,0c0.3,0,0.5,0,0.8-0.1c0.7-0.2,1.1-0.7,1.1-1.4c0-0.2,0-0.4,0-0.6
		c0-4.8,0-9.6,0-14.4c0-0.1,0-0.2-0.1-0.3c-2.7-4.7-5.4-9.3-8.2-13.9c-2.2-3.8-4.4-7.5-6.6-11.3c-0.2-0.4-0.5-0.8-0.8-1.1
		c-0.6-0.7-1.4-1-2.3-1.1c-0.6,0-1.2,0-1.8,0C-330.2,284.7-330.2,283.1-330.2,281.5z"/>
	<path class="st0" d="M-278.1,290.3c0,0.3-0.1,0.7-0.1,1c-0.3,1.8-1.1,3.4-2.2,4.9c-1.4,1.7-3,3-4.9,4.1c-2.2,1.3-4.4,2.3-6.9,2.8
		c-0.5,0.1-1.1,0.2-1.7,0.3h-0.1c1.3-2.1,2.6-4.2,3.9-6.3c-0.1,0-0.2,0-0.3,0c-2.7-0.1-5.2-0.8-7.4-2.4c-1.7-1.3-2.7-3-3-5.1
		c-0.2-1.6-0.1-3.1,0.5-4.6c0.7-1.8,2-3.2,3.7-4.2c1.3-0.8,2.7-1.2,4.2-1.5c0.6-0.1,1.1-0.1,1.7-0.2c0.1,0,0.1,0,0.2,0
		c0.7,0,1.4,0,2.1,0h0.1c0.4,0,0.8,0.1,1.1,0.1c1.4,0.2,2.7,0.6,3.9,1.2c2.9,1.6,4.6,4.1,5.1,7.4c0,0.3,0.1,0.6,0.1,0.8
		C-278.1,289.2-278.1,289.8-278.1,290.3z"/>
</g>
</svg>
