<?xml version="1.0" encoding="utf-8"?>
<!-- Generator: Adobe Illustrator 19.2.0, SVG Export Plug-In . SVG Version: 6.00 Build 0)  -->
<!DOCTYPE svg PUBLIC "-//W3C//DTD SVG 1.1//EN" "http://www.w3.org/Graphics/SVG/1.1/DTD/svg11.dtd">
<svg version="1.1" id="Layer_1" xmlns="http://www.w3.org/2000/svg" xmlns:xlink="http://www.w3.org/1999/xlink" x="0px" y="0px"
	 viewBox="0 0 232.8 60" style="enable-background:new 0 0 232.8 60;" xml:space="preserve">
<style type="text/css">
	.st0{fill:#FFFFFF;}
</style>
<g>
	<g>
		<path class="st0" d="M0,0v37.6c0,0,0.1,0,0.1,0c0.1,0,1-0.3,1.4-0.7C1.7,36.7,14.8,22.5,15,22.3c0.1-0.1,0.1-0.1,0.2,0
			c0.1,0.1-0.1,13.6-0.1,13.8c0,0.2,0,0.5,0.4,0.7c0.3,0.2,1.6,0.7,1.8,0.8c0.1,0,0,0.1-0.1,0.1H9.9c0,0-0.1,0,0-0.1
			c0.1,0,2.4-0.8,2.6-0.9c0.4-0.1,0.5-0.2,0.5-0.8c0-0.5,0.2-3.7,0.2-3.9c0-0.2,0.1-0.6-0.5-0.6c-0.2,0-1-0.1-1.9-0.1
			c-1,0-2,0-2.2,0c-0.6,0-0.7,0-1,0.3c-0.3,0.2-3.8,4.5-3.9,4.7c-0.1,0.2-0.1,0.4,0.3,0.5C4.3,37,6.5,37.4,7,37.6
			c0.1,0,0.1,0.1,0,0.1H0.1c0,0,0,0-0.1,0V60h60l0-60H0z M25.5,23.5c-0.4,0.2-0.5,0.3-0.6,0.6c-0.1,0.2-2.8,11.8-2.9,12
			c-0.1,0.3-0.1,0.5,0.2,0.6c0.3,0.1,1.9,0.7,2,0.7c0.1,0,0.1,0.1,0,0.1h-6.8c-0.1,0-0.2,0-0.1-0.1c0.1-0.1,1.6-0.6,1.8-0.7
			c0.2-0.1,0.5-0.2,0.7-0.5c0.1-0.3,2.9-11.9,3-12.2c0.1-0.3,0-0.6-0.3-0.7c-0.2-0.1-1.9-0.7-2-0.7c-0.1,0-0.1-0.1,0-0.1h7.1
			c0.1,0,0.2,0.1,0.1,0.1c-0.1,0-1.3,0.4-1.4,0.4C26.1,23.3,25.7,23.4,25.5,23.5z M39.2,36.7c-0.2,0.1-2.6,1-4.9,1
			c-5.9,0.2-8-3.9-7-7.7c0.5-2,1.8-3.8,3.4-5.1c0.9-0.7,3.7-2.5,7.4-2.5c0.7,0,2.4,0.1,3.7,0.4c0.6,0.2,0.5,0.5,0.5,0.8
			c0,0.1-1.4,4.3-1.5,4.4c-0.1,0.2-0.2,0.2-0.2,0c0-0.1,0.2-3.8,0.2-3.9c0-0.4,0-0.6-0.4-0.8c-0.6-0.2-3.5-0.4-5.6,0.5
			c-3.6,1.7-5.7,5.5-5.2,8.6c0.3,2.5,2.4,4.6,5.6,4.7c1,0,1.7-0.1,2-0.2c0.3-0.1,0.4-0.2,0.4-0.4c0.1-0.2,0.6-2.4,0.6-2.5
			c0,0,0,0,0-0.1l-0.2-0.5c-0.3-0.1-3.2-0.9-3.4-0.9c-0.2,0-0.1-0.1,0-0.1H40c0.2,0,0.8-0.1,0.6,0.5c-0.2,0.6-1,3.2-1.1,3.3
			C39.6,36.6,39.4,36.7,39.2,36.7z M57.1,37.6h-7.3c0,0-0.1,0,0-0.1c0.1,0,2.4-0.8,2.6-0.9c0.4-0.1,0.4-0.2,0.5-0.8
			c0-0.5,0.2-3.7,0.2-3.9c0-0.2,0.1-0.6-0.5-0.6c-0.2,0-1-0.1-1.9-0.1c-1,0-2,0-2.2,0c-0.6,0-0.7,0-1,0.3c-0.2,0.2-3.7,4.5-3.9,4.7
			c-0.1,0.2-0.1,0.4,0.3,0.5c0.4,0.1,2.6,0.6,3.1,0.7c0.1,0,0.1,0.1,0,0.1H40c-0.1,0-0.1-0.1,0-0.1c0.1,0,1-0.4,1.4-0.7
			c0.2-0.1,13.3-14.3,13.5-14.6c0.1-0.1,0.1-0.1,0.2,0c0.1,0.1-0.2,13.6-0.1,13.8c0,0.2,0,0.5,0.4,0.7C55.7,36.9,57,37.5,57.1,37.6
			C57.3,37.6,57.2,37.6,57.1,37.6z"/>
		<path class="st0" d="M52.6,25.8c-0.1,0.2-3.9,4.2-4.1,4.4c-0.2,0.2-0.2,0.5,0.3,0.5c0,0,3.1,0,3.6,0c0.5,0,0.6-0.2,0.6-0.5
			c0-0.2,0.1-3.9,0.1-4.3C53.1,25.5,52.9,25.5,52.6,25.8z"/>
		<path class="st0" d="M9,30.8c0,0,3.1,0,3.5,0c0.5,0,0.6-0.2,0.6-0.5c0-0.2,0.1-3.9,0.1-4.3c0-0.4-0.2-0.4-0.5-0.1
			C12.6,26,8.8,30,8.6,30.2C8.4,30.4,8.4,30.7,9,30.8z"/>
	</g>
	<g>
		<path class="st0" d="M84,17.7h1.9v8.1H84c0.1-4.5-1.8-6.9-6.4-6.9c-2.8,0-5.4,1.8-5.4,4.9c0,6.5,14.3,3,14.3,12.2
			c0,4.2-3.8,6.7-7.8,6.7c-3.1,0-5.4-0.8-6.9-3.6h-0.1v3.2h-1.9v-8.1h1.9c-0.2,3.9,2.3,6.9,6.3,6.9c2.9,0,6.1-1.5,6.1-5
			c0-6.9-14.3-4-14.3-12.2c0-4,3.8-6.5,7.8-6.5c2.4,0,5,0.8,6.3,2.9H84V17.7z"/>
		<path class="st0" d="M102.5,39L102.5,39c-1.1,2.6-3.7,3.8-6.4,3.8c-3.5,0-6-1.7-6-5.4c0-4.8,5.3-5.1,8.8-5.1h3.6v-1.2
			c0-3-1.7-4.5-4.7-4.5c-2.6,0-4.6,1-4.9,3.7h-2.1c0.5-3.7,3.3-5.1,6.9-5.1c4.3,0,6.8,1.5,6.8,5.9v10h2.6v1.4h-4.4V39z M96.5,41.3
			c4.5,0,6-3.7,6-7.7h-3.9c-2.5,0-6.4,0.4-6.4,3.8C92.2,39.9,94.2,41.3,96.5,41.3z"/>
		<path class="st0" d="M108.8,40.9h3V26.8h-3v-1.4h4.9V28h0.1c1-2,3.1-3,5.3-3c6.5,0,6.1,4.8,6.1,8.7v7.2h2.8v1.4h-7.7v-1.4h3v-7.2
			c0-4.1,0.2-7.2-4.3-7c-4.4,0-5.3,3.5-5.3,7v7.2h3v1.4h-7.9V40.9z"/>
		<path class="st0" d="M139.8,40.7h3.4V19.4h-3.4v-1.7h8.8c8,0,13.6,3.1,13.6,12c0,9.4-5,12.6-13.6,12.6h-8.8V40.7z M145.3,40.7h2.9
			c7.5,0,11.6-2.8,11.6-11c0-7.8-4.5-10.4-11.6-10.4h-2.9V40.7z"/>
		<path class="st0" d="M165.2,40.9h3.8V26.8h-3.8v-1.4h5.7v15.5h3v1.4h-8.7V40.9z M170.9,21.2h-2.3v-2.6h2.3V21.2z"/>
		<path class="st0" d="M178.5,34.2c0,4.1,2,7.1,6.3,7.1c2.6,0,5.1-1.4,5.6-4.1h1.9c-0.3,3.7-4,5.6-7.3,5.6c-5.5,0-8.5-3.2-8.5-9.2
			c0-4.7,2.8-8.5,8.2-8.5c5.7,0,8.1,4,7.9,9.2H178.5z M190.4,32.8c-0.1-3.6-2.1-6.3-6-6.3c-3.6,0-5.7,2.9-5.9,6.3H190.4z"/>
		<path class="st0" d="M214.4,26.8h-2.9V41c0,5.1-2,8-7.8,8c-3.2,0-7-1.2-7-5h1.9c0.4,2.8,2.9,3.6,5.3,3.6c4.7,0,5.8-3,5.8-7.2v-1.6
			h-0.1c-1.4,2.5-3.4,3.4-6.2,3.4c-4.7,0-7.8-3.7-7.8-8.4c0-4.7,2.4-8.7,7.7-8.7c2.7,0,5,0.9,6.3,3.4h0.1v-3h4.8V26.8z M203.7,40.7
			c4.5,0,5.9-3.7,5.9-7.4c0-3.8-2-6.9-5.9-6.9c-4,0-6.1,3.4-6.1,6.9C197.7,37.3,199.6,40.7,203.7,40.7z"/>
		<path class="st0" d="M224.7,25c4.9,0,8.1,3.5,8.1,8.9c0,5.3-3.1,8.9-8.1,8.9c-4.9,0-8.1-3.5-8.1-8.9C216.7,28.6,219.8,25,224.7,25
			z M224.7,41.3c1.9,0,6-1.1,6-7.4c0-6.3-4.1-7.4-6-7.4c-1.9,0-6,1.1-6,7.4C218.8,40.2,222.9,41.3,224.7,41.3z"/>
	</g>
</g>
</svg>
