<?xml version="1.0" encoding="utf-8"?>
<!-- Generator: Adobe Illustrator 19.2.0, SVG Export Plug-In . SVG Version: 6.00 Build 0)  -->
<!DOCTYPE svg PUBLIC "-//W3C//DTD SVG 1.1//EN" "http://www.w3.org/Graphics/SVG/1.1/DTD/svg11.dtd">
<svg version="1.1" id="Layer_1" xmlns="http://www.w3.org/2000/svg" xmlns:xlink="http://www.w3.org/1999/xlink" x="0px" y="0px"
	 viewBox="0 0 319.7 200" style="enable-background:new 0 0 319.7 200;" xml:space="preserve">
<style type="text/css">
	.st0{fill:#FFFFFF;}
	.st1{fill-rule:evenodd;clip-rule:evenodd;fill:#FFFFFF;}
</style>
<g>
	<g>
		<path class="st0" d="M233.2,199.5v-9.6c0-2-0.9-2.6-2.3-2.6c-1.2,0-2.2,0.6-2.9,1.2v11h-5.4v-16l5.4-0.7c0,0,0,2.4,0,2.7
			c1.4-1.6,3.4-2.8,5.5-2.8c3.3,0,5.2,2.1,5.2,5.6v11.2H233.2z"/>
		<path class="st0" d="M250.1,200c-4.9,0-8.6-3.1-8.6-8.6s3.9-8.7,8.9-8.7c4.9,0,8.6,3.2,8.6,8.6S255,200,250.1,200z M250.2,186.8
			c-2.2,0-3.4,1.8-3.4,4.6c0,2.8,1.2,4.5,3.4,4.5c2.2,0,3.4-1.7,3.4-4.6C253.6,188.6,252.4,186.8,250.2,186.8z"/>
		<path class="st0" d="M264.6,200c-2,0-3.3-1.3-3.3-3.2c0-1.9,1.3-3.2,3.3-3.2c2,0,3.3,1.3,3.3,3.2C267.9,198.7,266.5,200,264.6,200
			z"/>
	</g>
	<g>
		<path class="st0" d="M272.1,199.5v-6.7c10-6.3,15.4-9.3,15.4-12.7c0-2.2-1.6-3.5-4.8-3.5c-2.8,0-6,1.3-9.2,3.3l-2.1-7.2
			c3.5-2.5,8.7-4.3,13.6-4.3c8.1,0,12.8,4.2,12.8,10c0,5.2-4.4,9.1-12.5,13.3h13.9l0.1,7.9H272.1z"/>
		<path class="st0" d="M310.1,178.3l-7.3,1.7l-0.2-8l17.1-3.7v31.2h-9.6V178.3z"/>
	</g>
	<g>
		<path class="st0" d="M191.6,6.1v187.2H6.1V6.1H191.6 M197.7,0H0v199.5h197.7V0L197.7,0z"/>
	</g>
	<g>
		<path class="st1" d="M39.5,41.6c0.2,0,0.4,0,0.6,0h48.3H89v10.8h-0.5c-2.8,0-5.7,0-8.5,0c-0.6,0-1.1,0.1-1.7,0.2
			c-1.9,0.5-2.7,2-2.3,3.9c0.3,1.2,0.8,2.2,1.5,3.3c1.9,3.2,3.7,6.3,5.6,9.5c7.3,12.4,14.5,24.9,21.8,37.3c0.9,1.5,1.7,2.9,2.6,4.4
			c0.2,0.3,0.3,0.7,0.3,1c0,12.1,0,24.2,0,36.3c0,0.5,0,1,0.1,1.5c0.4,1.8,1.5,2.8,3.3,3c0.5,0.1,1.1,0.1,1.6,0.1c3,0,6.1,0,9.1,0
			h0.5v10.8H69.6v-10.8h0.5c3.2,0,6.4,0,9.7,0c0.6,0,1.2-0.1,1.8-0.2c1.5-0.4,2.4-1.5,2.6-3.1c0-0.5,0.1-1,0.1-1.5
			c0-10.9,0-21.7,0-32.6c0-0.2-0.1-0.5-0.2-0.7c-6.2-10.6-12.4-21.1-18.6-31.7c-5-8.5-10-17.1-15-25.6c-0.5-0.9-1.1-1.7-1.8-2.5
			c-1.3-1.6-3.1-2.4-5.1-2.4c-1.3-0.1-2.7,0-4,0V41.6z"/>
		<path class="st1" d="M158,61.6c-0.1,0.7-0.2,1.5-0.3,2.2c-0.7,4.2-2.5,7.8-5.1,11.1c-3.1,3.9-6.9,6.9-11.1,9.4
			c-4.9,2.9-10.1,5.1-15.6,6.5c-1.2,0.3-2.5,0.4-3.8,0.6c-0.1,0-0.2,0-0.3,0c2.9-4.8,5.8-9.5,8.8-14.2c-0.2,0-0.4,0-0.6,0
			c-6.1-0.2-11.8-1.8-16.8-5.5c-3.9-2.9-6.2-6.8-6.8-11.6c-0.5-3.7-0.2-7.2,1.2-10.7c1.7-4.2,4.6-7.2,8.5-9.4c3-1.7,6.2-2.8,9.5-3.3
			c1.3-0.2,2.6-0.3,3.9-0.5c0.1,0,0.2-0.1,0.4-0.1h4.7c0.1,0,0.2,0.1,0.3,0.1c0.9,0.1,1.7,0.2,2.6,0.3c3.1,0.4,6,1.3,8.8,2.8
			c6.7,3.6,10.4,9.3,11.5,16.7c0.1,0.6,0.2,1.3,0.3,1.9V61.6z"/>
	</g>
</g>
</svg>
