<?xml version="1.0" encoding="utf-8"?>
<!-- Generator: Adobe Illustrator 19.1.0, SVG Export Plug-In . SVG Version: 6.00 Build 0)  -->
<!DOCTYPE svg PUBLIC "-//W3C//DTD SVG 1.1//EN" "http://www.w3.org/Graphics/SVG/1.1/DTD/svg11.dtd">
<svg version="1.1" id="Layer_1" xmlns="http://www.w3.org/2000/svg" xmlns:xlink="http://www.w3.org/1999/xlink" x="0px" y="0px"
	 viewBox="0 0 1140 461.6" style="enable-background:new 0 0 1140 461.6;" xml:space="preserve">
<style type="text/css">
	.st0{fill:none;stroke:#FFBA9A;stroke-miterlimit:10;}
</style>
<path class="st0" d="M1140,461.1c-63.3,0-63.3-16.8-126.7-16.8c-63.3,0-63.3,16.8-126.7,16.8c-63.3,0-63.3-16.8-126.7-16.8
	c-63.3,0-63.3,16.8-126.7,16.8c-63.3,0-63.3-16.8-126.7-16.8c-63.3,0-63.3,16.8-126.7,16.8c-63.3,0-63.3-16.8-126.7-16.8
	c-63.3,0-63.3,16.8-126.7,16.8c-63.3,0-63.3-16.8-126.7-16.8"/>
<path class="st0" d="M1140,449.4c-63.3,0-63.3-16.8-126.7-16.8c-63.3,0-63.3,16.8-126.7,16.8c-63.3,0-63.3-16.8-126.7-16.8
	c-63.3,0-63.3,16.8-126.7,16.8c-63.3,0-63.3-16.8-126.7-16.8c-63.3,0-63.3,16.8-126.7,16.8c-63.3,0-63.3-16.8-126.7-16.8
	c-63.3,0-63.3,16.8-126.7,16.8c-63.3,0-63.3-16.8-126.7-16.8"/>
<path class="st0" d="M1140,437.7c-63.3,0-63.3-16.8-126.7-16.8c-63.3,0-63.3,16.8-126.7,16.8c-63.3,0-63.3-16.8-126.7-16.8
	c-63.3,0-63.3,16.8-126.7,16.8c-63.3,0-63.3-16.8-126.7-16.8c-63.3,0-63.3,16.8-126.7,16.8c-63.3,0-63.3-16.8-126.7-16.8
	c-63.3,0-63.3,16.8-126.7,16.8c-63.3,0-63.3-16.8-126.7-16.8"/>
<path class="st0" d="M1140,426c-63.3,0-63.3-16.8-126.7-16.8C950,409.2,950,426,886.7,426c-63.3,0-63.3-16.8-126.7-16.8
	c-63.3,0-63.3,16.8-126.7,16.8c-63.3,0-63.3-16.8-126.7-16.8c-63.3,0-63.3,16.8-126.7,16.8c-63.3,0-63.3-16.8-126.7-16.8
	C190,409.2,190,426,126.7,426C63.3,426,63.3,409.2,0,409.2"/>
<path class="st0" d="M1140,414.3c-63.3,0-63.3-16.8-126.7-16.8c-63.3,0-63.3,16.8-126.7,16.8c-63.3,0-63.3-16.8-126.7-16.8
	c-63.3,0-63.3,16.8-126.7,16.8c-63.3,0-63.3-16.8-126.7-16.8c-63.3,0-63.3,16.8-126.7,16.8c-63.3,0-63.3-16.8-126.7-16.8
	c-63.3,0-63.3,16.8-126.7,16.8c-63.3,0-63.3-16.8-126.7-16.8"/>
<path class="st0" d="M1140,402.7c-63.3,0-63.3-16.8-126.7-16.8c-63.3,0-63.3,16.8-126.7,16.8c-63.3,0-63.3-16.8-126.7-16.8
	c-63.3,0-63.3,16.8-126.7,16.8c-63.3,0-63.3-16.8-126.7-16.8c-63.3,0-63.3,16.8-126.7,16.8c-63.3,0-63.3-16.8-126.7-16.8
	c-63.3,0-63.3,16.8-126.7,16.8c-63.3,0-63.3-16.8-126.7-16.8"/>
<path class="st0" d="M1140,391c-63.3,0-63.3-16.8-126.7-16.8C950,374.2,950,391,886.7,391c-63.3,0-63.3-16.8-126.7-16.8
	c-63.3,0-63.3,16.8-126.7,16.8c-63.3,0-63.3-16.8-126.7-16.8c-63.3,0-63.3,16.8-126.7,16.8s-63.3-16.8-126.7-16.8
	C190,374.2,190,391,126.7,391C63.3,391,63.3,374.2,0,374.2"/>
<path class="st0" d="M1140,379.3c-63.3,0-63.3-16.8-126.7-16.8c-63.3,0-63.3,16.8-126.7,16.8c-63.3,0-63.3-16.8-126.7-16.8
	c-63.3,0-63.3,16.8-126.7,16.8c-63.3,0-63.3-16.8-126.7-16.8c-63.3,0-63.3,16.8-126.7,16.8c-63.3,0-63.3-16.8-126.7-16.8
	c-63.3,0-63.3,16.8-126.7,16.8c-63.3,0-63.3-16.8-126.7-16.8"/>
<path class="st0" d="M1140,367.6c-63.3,0-63.3-16.8-126.7-16.8c-63.3,0-63.3,16.8-126.7,16.8c-63.3,0-63.3-16.8-126.7-16.8
	c-63.3,0-63.3,16.8-126.7,16.8c-63.3,0-63.3-16.8-126.7-16.8c-63.3,0-63.3,16.8-126.7,16.8c-63.3,0-63.3-16.8-126.7-16.8
	c-63.3,0-63.3,16.8-126.7,16.8c-63.3,0-63.3-16.8-126.7-16.8"/>
<path class="st0" d="M1140,356c-63.3,0-63.3-16.8-126.7-16.8C950,339.1,950,356,886.7,356c-63.3,0-63.3-16.8-126.7-16.8
	c-63.3,0-63.3,16.8-126.7,16.8c-63.3,0-63.3-16.8-126.7-16.8c-63.3,0-63.3,16.8-126.7,16.8c-63.3,0-63.3-16.8-126.7-16.8
	C190,339.1,190,356,126.7,356C63.3,356,63.3,339.1,0,339.1"/>
<path class="st0" d="M1140,344.3c-63.3,0-63.3-16.8-126.7-16.8c-63.3,0-63.3,16.8-126.7,16.8c-63.3,0-63.3-16.8-126.7-16.8
	c-63.3,0-63.3,16.8-126.7,16.8c-63.3,0-63.3-16.8-126.7-16.8c-63.3,0-63.3,16.8-126.7,16.8c-63.3,0-63.3-16.8-126.7-16.8
	c-63.3,0-63.3,16.8-126.7,16.8c-63.3,0-63.3-16.8-126.7-16.8"/>
<path class="st0" d="M1140,332.6c-63.3,0-63.3-16.8-126.7-16.8c-63.3,0-63.3,16.8-126.7,16.8c-63.3,0-63.3-16.8-126.7-16.8
	c-63.3,0-63.3,16.8-126.7,16.8c-63.3,0-63.3-16.8-126.7-16.8c-63.3,0-63.3,16.8-126.7,16.8c-63.3,0-63.3-16.8-126.7-16.8
	c-63.3,0-63.3,16.8-126.7,16.8c-63.3,0-63.3-16.8-126.7-16.8"/>
<path class="st0" d="M1140,320.9c-63.3,0-63.3-16.8-126.7-16.8c-63.3,0-63.3,16.8-126.7,16.8c-63.3,0-63.3-16.8-126.7-16.8
	c-63.3,0-63.3,16.8-126.7,16.8c-63.3,0-63.3-16.8-126.7-16.8c-63.3,0-63.3,16.8-126.7,16.8c-63.3,0-63.3-16.8-126.7-16.8
	c-63.3,0-63.3,16.8-126.7,16.8c-63.3,0-63.3-16.8-126.7-16.8"/>
<path class="st0" d="M1140,309.2c-63.3,0-63.3-16.8-126.7-16.8c-63.3,0-63.3,16.8-126.7,16.8c-63.3,0-63.3-16.8-126.7-16.8
	c-63.3,0-63.3,16.8-126.7,16.8c-63.3,0-63.3-16.8-126.7-16.8c-63.3,0-63.3,16.8-126.7,16.8c-63.3,0-63.3-16.8-126.7-16.8
	c-63.3,0-63.3,16.8-126.7,16.8c-63.3,0-63.3-16.8-126.7-16.8"/>
<path class="st0" d="M1140,297.6c-63.3,0-63.3-16.8-126.7-16.8c-63.3,0-63.3,16.8-126.7,16.8c-63.3,0-63.3-16.8-126.7-16.8
	c-63.3,0-63.3,16.8-126.7,16.8c-63.3,0-63.3-16.8-126.7-16.8c-63.3,0-63.3,16.8-126.7,16.8c-63.3,0-63.3-16.8-126.7-16.8
	c-63.3,0-63.3,16.8-126.7,16.8c-63.3,0-63.3-16.8-126.7-16.8"/>
<path class="st0" d="M1140,285.9c-63.3,0-63.3-16.8-126.7-16.8c-63.3,0-63.3,16.8-126.7,16.8c-63.3,0-63.3-16.8-126.7-16.8
	c-63.3,0-63.3,16.8-126.7,16.8c-63.3,0-63.3-16.8-126.7-16.8c-63.3,0-63.3,16.8-126.7,16.8c-63.3,0-63.3-16.8-126.7-16.8
	c-63.3,0-63.3,16.8-126.7,16.8c-63.3,0-63.3-16.8-126.7-16.8"/>
<path class="st0" d="M1140,274.2c-63.3,0-63.3-16.8-126.7-16.8c-63.3,0-63.3,16.8-126.7,16.8c-63.3,0-63.3-16.8-126.7-16.8
	c-63.3,0-63.3,16.8-126.7,16.8c-63.3,0-63.3-16.8-126.7-16.8c-63.3,0-63.3,16.8-126.7,16.8c-63.3,0-63.3-16.8-126.7-16.8
	c-63.3,0-63.3,16.8-126.7,16.8c-63.3,0-63.3-16.8-126.7-16.8"/>
<path class="st0" d="M1140,262.5c-63.3,0-63.3-16.8-126.7-16.8c-63.3,0-63.3,16.8-126.7,16.8c-63.3,0-63.3-16.8-126.7-16.8
	c-63.3,0-63.3,16.8-126.7,16.8c-63.3,0-63.3-16.8-126.7-16.8c-63.3,0-63.3,16.8-126.7,16.8c-63.3,0-63.3-16.8-126.7-16.8
	c-63.3,0-63.3,16.8-126.7,16.8c-63.3,0-63.3-16.8-126.7-16.8"/>
<path class="st0" d="M1140,250.9c-63.3,0-63.3-16.8-126.7-16.8c-63.3,0-63.3,16.8-126.7,16.8c-63.3,0-63.3-16.8-126.7-16.8
	c-63.3,0-63.3,16.8-126.7,16.8C570,250.9,570,234,506.7,234c-63.3,0-63.3,16.8-126.7,16.8c-63.3,0-63.3-16.8-126.7-16.8
	c-63.3,0-63.3,16.8-126.7,16.8C63.3,250.9,63.3,234,0,234"/>
<path class="st0" d="M1140,239.2c-63.3,0-63.3-16.8-126.7-16.8c-63.3,0-63.3,16.8-126.7,16.8c-63.3,0-63.3-16.8-126.7-16.8
	c-63.3,0-63.3,16.8-126.7,16.8c-63.3,0-63.3-16.8-126.7-16.8c-63.3,0-63.3,16.8-126.7,16.8c-63.3,0-63.3-16.8-126.7-16.8
	c-63.3,0-63.3,16.8-126.7,16.8c-63.3,0-63.3-16.8-126.7-16.8"/>
<path class="st0" d="M1140,227.5c-63.3,0-63.3-16.8-126.7-16.8c-63.3,0-63.3,16.8-126.7,16.8c-63.3,0-63.3-16.8-126.7-16.8
	c-63.3,0-63.3,16.8-126.7,16.8c-63.3,0-63.3-16.8-126.7-16.8c-63.3,0-63.3,16.8-126.7,16.8c-63.3,0-63.3-16.8-126.7-16.8
	c-63.3,0-63.3,16.8-126.7,16.8c-63.3,0-63.3-16.8-126.7-16.8"/>
<path class="st0" d="M1140,215.8c-63.3,0-63.3-16.8-126.7-16.8c-63.3,0-63.3,16.8-126.7,16.8c-63.3,0-63.3-16.8-126.7-16.8
	c-63.3,0-63.3,16.8-126.7,16.8C570,215.8,570,199,506.7,199c-63.3,0-63.3,16.8-126.7,16.8c-63.3,0-63.3-16.8-126.7-16.8
	c-63.3,0-63.3,16.8-126.7,16.8C63.3,215.8,63.3,199,0,199"/>
<path class="st0" d="M1140,204.2c-63.3,0-63.3-16.8-126.7-16.8c-63.3,0-63.3,16.8-126.7,16.8c-63.3,0-63.3-16.8-126.7-16.8
	c-63.3,0-63.3,16.8-126.7,16.8c-63.3,0-63.3-16.8-126.7-16.8c-63.3,0-63.3,16.8-126.7,16.8c-63.3,0-63.3-16.8-126.7-16.8
	c-63.3,0-63.3,16.8-126.7,16.8c-63.3,0-63.3-16.8-126.7-16.8"/>
<path class="st0" d="M1140,192.5c-63.3,0-63.3-16.8-126.7-16.8c-63.3,0-63.3,16.8-126.7,16.8c-63.3,0-63.3-16.8-126.7-16.8
	c-63.3,0-63.3,16.8-126.7,16.8c-63.3,0-63.3-16.8-126.7-16.8c-63.3,0-63.3,16.8-126.7,16.8c-63.3,0-63.3-16.8-126.7-16.8
	c-63.3,0-63.3,16.8-126.7,16.8c-63.3,0-63.3-16.8-126.7-16.8"/>
<path class="st0" d="M1140,180.8c-63.3,0-63.3-16.8-126.7-16.8c-63.3,0-63.3,16.8-126.7,16.8c-63.3,0-63.3-16.8-126.7-16.8
	c-63.3,0-63.3,16.8-126.7,16.8C570,180.8,570,164,506.7,164c-63.3,0-63.3,16.8-126.7,16.8c-63.3,0-63.3-16.8-126.7-16.8
	c-63.3,0-63.3,16.8-126.7,16.8C63.3,180.8,63.3,164,0,164"/>
<path class="st0" d="M1140,169.1c-63.3,0-63.3-16.8-126.7-16.8c-63.3,0-63.3,16.8-126.7,16.8c-63.3,0-63.3-16.8-126.7-16.8
	c-63.3,0-63.3,16.8-126.7,16.8c-63.3,0-63.3-16.8-126.7-16.8c-63.3,0-63.3,16.8-126.7,16.8c-63.3,0-63.3-16.8-126.7-16.8
	c-63.3,0-63.3,16.8-126.7,16.8c-63.3,0-63.3-16.8-126.7-16.8"/>
<path class="st0" d="M1140,157.4c-63.3,0-63.3-16.8-126.7-16.8c-63.3,0-63.3,16.8-126.7,16.8c-63.3,0-63.3-16.8-126.7-16.8
	c-63.3,0-63.3,16.8-126.7,16.8c-63.3,0-63.3-16.8-126.7-16.8c-63.3,0-63.3,16.8-126.7,16.8c-63.3,0-63.3-16.8-126.7-16.8
	c-63.3,0-63.3,16.8-126.7,16.8c-63.3,0-63.3-16.8-126.7-16.8"/>
<path class="st0" d="M1140,145.8c-63.3,0-63.3-16.8-126.7-16.8c-63.3,0-63.3,16.8-126.7,16.8c-63.3,0-63.3-16.8-126.7-16.8
	c-63.3,0-63.3,16.8-126.7,16.8C570,145.8,570,129,506.7,129c-63.3,0-63.3,16.8-126.7,16.8c-63.3,0-63.3-16.8-126.7-16.8
	c-63.3,0-63.3,16.8-126.7,16.8C63.3,145.8,63.3,129,0,129"/>
<path class="st0" d="M1140,134.1c-63.3,0-63.3-16.8-126.7-16.8c-63.3,0-63.3,16.8-126.7,16.8c-63.3,0-63.3-16.8-126.7-16.8
	c-63.3,0-63.3,16.8-126.7,16.8c-63.3,0-63.3-16.8-126.7-16.8c-63.3,0-63.3,16.8-126.7,16.8c-63.3,0-63.3-16.8-126.7-16.8
	c-63.3,0-63.3,16.8-126.7,16.8c-63.3,0-63.3-16.8-126.7-16.8"/>
<path class="st0" d="M1140,122.4c-63.3,0-63.3-16.8-126.7-16.8c-63.3,0-63.3,16.8-126.7,16.8c-63.3,0-63.3-16.8-126.7-16.8
	c-63.3,0-63.3,16.8-126.7,16.8c-63.3,0-63.3-16.8-126.7-16.8c-63.3,0-63.3,16.8-126.7,16.8c-63.3,0-63.3-16.8-126.7-16.8
	c-63.3,0-63.3,16.8-126.7,16.8c-63.3,0-63.3-16.8-126.7-16.8"/>
<path class="st0" d="M1140,110.7c-63.3,0-63.3-16.8-126.7-16.8c-63.3,0-63.3,16.8-126.7,16.8c-63.3,0-63.3-16.8-126.7-16.8
	c-63.3,0-63.3,16.8-126.7,16.8S570,93.9,506.7,93.9c-63.3,0-63.3,16.8-126.7,16.8c-63.3,0-63.3-16.8-126.7-16.8
	c-63.3,0-63.3,16.8-126.7,16.8C63.3,110.7,63.3,93.9,0,93.9"/>
<path class="st0" d="M1140,99.1c-63.3,0-63.3-16.8-126.7-16.8c-63.3,0-63.3,16.8-126.7,16.8c-63.3,0-63.3-16.8-126.7-16.8
	c-63.3,0-63.3,16.8-126.7,16.8c-63.3,0-63.3-16.8-126.7-16.8c-63.3,0-63.3,16.8-126.7,16.8c-63.3,0-63.3-16.8-126.7-16.8
	c-63.3,0-63.3,16.8-126.7,16.8C63.3,99.1,63.3,82.2,0,82.2"/>
<path class="st0" d="M1140,87.4c-63.3,0-63.3-16.8-126.7-16.8c-63.3,0-63.3,16.8-126.7,16.8c-63.3,0-63.3-16.8-126.7-16.8
	c-63.3,0-63.3,16.8-126.7,16.8S570,70.6,506.7,70.6c-63.3,0-63.3,16.8-126.7,16.8c-63.3,0-63.3-16.8-126.7-16.8
	c-63.3,0-63.3,16.8-126.7,16.8C63.3,87.4,63.3,70.6,0,70.6"/>
<path class="st0" d="M1140,75.7c-63.3,0-63.3-16.8-126.7-16.8c-63.3,0-63.3,16.8-126.7,16.8c-63.3,0-63.3-16.8-126.7-16.8
	c-63.3,0-63.3,16.8-126.7,16.8c-63.3,0-63.3-16.8-126.7-16.8c-63.3,0-63.3,16.8-126.7,16.8c-63.3,0-63.3-16.8-126.7-16.8
	c-63.3,0-63.3,16.8-126.7,16.8C63.3,75.7,63.3,58.9,0,58.9"/>
<path class="st0" d="M1140,64c-63.3,0-63.3-16.8-126.7-16.8C950,47.2,950,64,886.7,64c-63.3,0-63.3-16.8-126.7-16.8
	c-63.3,0-63.3,16.8-126.7,16.8C570,64,570,47.2,506.7,47.2C443.3,47.2,443.3,64,380,64c-63.3,0-63.3-16.8-126.7-16.8
	C190,47.2,190,64,126.7,64C63.3,64,63.3,47.2,0,47.2"/>
<path class="st0" d="M1140,52.3c-63.3,0-63.3-16.8-126.7-16.8c-63.3,0-63.3,16.8-126.7,16.8c-63.3,0-63.3-16.8-126.7-16.8
	c-63.3,0-63.3,16.8-126.7,16.8c-63.3,0-63.3-16.8-126.7-16.8c-63.3,0-63.3,16.8-126.7,16.8c-63.3,0-63.3-16.8-126.7-16.8
	c-63.3,0-63.3,16.8-126.7,16.8C63.3,52.3,63.3,35.5,0,35.5"/>
<path class="st0" d="M1140,40.7c-63.3,0-63.3-16.8-126.7-16.8c-63.3,0-63.3,16.8-126.7,16.8c-63.3,0-63.3-16.8-126.7-16.8
	c-63.3,0-63.3,16.8-126.7,16.8c-63.3,0-63.3-16.8-126.7-16.8c-63.3,0-63.3,16.8-126.7,16.8c-63.3,0-63.3-16.8-126.7-16.8
	c-63.3,0-63.3,16.8-126.7,16.8C63.3,40.7,63.3,23.9,0,23.9"/>
<path class="st0" d="M1140,29c-63.3,0-63.3-16.8-126.7-16.8C950,12.2,950,29,886.7,29c-63.3,0-63.3-16.8-126.7-16.8
	c-63.3,0-63.3,16.8-126.7,16.8C570,29,570,12.2,506.7,12.2C443.3,12.2,443.3,29,380,29c-63.3,0-63.3-16.8-126.7-16.8
	C190,12.2,190,29,126.7,29C63.3,29,63.3,12.2,0,12.2"/>
<path class="st0" d="M1140,17.3c-63.3,0-63.3-16.8-126.7-16.8C950,0.5,950,17.3,886.7,17.3c-63.3,0-63.3-16.8-126.7-16.8
	c-63.3,0-63.3,16.8-126.7,16.8C570,17.3,570,0.5,506.7,0.5c-63.3,0-63.3,16.8-126.7,16.8c-63.3,0-63.3-16.8-126.7-16.8
	C190,0.5,190,17.3,126.7,17.3C63.3,17.3,63.3,0.5,0,0.5"/>
</svg>
